<?xml version="1.0" encoding="utf-8"?>
<!-- Generator: Adobe Illustrator 24.1.0, SVG Export Plug-In . SVG Version: 6.00 Build 0)  -->
<svg version="1.1" id="Layer_1" xmlns="http://www.w3.org/2000/svg" xmlns:xlink="http://www.w3.org/1999/xlink" x="0px" y="0px"
	 viewBox="0 0 200 200" enable-background="new 0 0 200 200" xml:space="preserve">
<g>
	<path fill="#DCE5E2" d="M63.202,150.778c0,0-26.937,16.98,2.155,33.142c29.092,16.162,86.2,18.447,96.975-16.032
		c10.774-34.48-52.799-17.109-52.799-17.109H63.202z"/>
	<g>
		<path fill="#BECFBF" d="M58.423,99.058c-5.41-0.564-11.318,0.121-16.453,1.831c-10.737,3.576-17.037,12.808-16.217,24.175
			c0.89,12.332,7.634,25.34,20.777,27.669c6.613,1.172,13.47,0.068,19.565-2.675c3.142-1.414,3.867-5.913,2.267-8.645
			c-1.876-3.203-5.504-3.68-8.645-2.267c-0.239,0.108,2.054-0.812,0.415-0.199c-0.959,0.358-1.941,0.652-2.929,0.915
			c-0.594,0.158-1.193,0.288-1.795,0.412c-0.393,0.081-0.79,0.146-1.186,0.212c-1.464,0.242,1.514-0.17-0.005-0.01
			c-1.681,0.177-3.374,0.155-5.053-0.02c1.778,0.185-0.771-0.216-1.193-0.326c-0.321-0.088-0.64-0.185-0.956-0.291
			c-1.599-0.512,1.171,0.585-0.38-0.128c-0.805-0.369-1.556-0.842-2.288-1.336c1.137,0.768-0.319-0.292-0.461-0.42
			c-0.441-0.395-0.839-0.835-1.235-1.272c-0.709-0.78-2.144-3.411-2.766-5.181c-0.969-2.753-1.463-5.279-1.58-7.853
			c-0.049-1.083,0.019-2.167,0.129-3.244c-0.123,1.212,0.385-1.299,0.504-1.686c0.255-0.687,0.234-0.678-0.064,0.029
			c0.2-0.466,0.449-0.911,0.697-1.353c0.241-0.429,0.526-0.83,0.81-1.231c-0.897,1.265,0.04,0.038,0.247-0.183
			c0.286-0.305,2.194-1.84,0.852-0.846c0.747-0.553,1.56-1.013,2.382-1.444c1.618-0.85-0.671,0.175,1.034-0.463
			c0.853-0.319,1.732-0.569,2.612-0.799c0.714-0.187,1.439-0.332,2.164-0.469c0.282-0.051,0.566-0.099,0.849-0.144
			c1.486-0.242-1.486,0.175-0.026,0.004c1.336-0.157,2.684-0.228,4.029-0.254c1.296-0.025,2.608-0.006,3.899,0.129
			c3.432,0.358,6.318-3.145,6.318-6.319C64.741,101.661,61.847,99.415,58.423,99.058L58.423,99.058z"/>
	</g>
	<path fill="#BECFBF" d="M58.165,77.148c0,0-8.198,91.349,4.684,98.376c12.883,7.027,73.782,26.936,96.033-10.541
		c0,0,3.513-78.466-3.513-96.033C148.342,51.383,58.165,77.148,58.165,77.148z"/>
	<path fill="#EBA939" d="M63.492,82.293c0,0-7.316,81.521,4.181,87.791c11.497,6.271,65.844,24.038,85.701-9.406
		c0,0,3.134-70.023-3.136-85.701C143.966,59.3,63.492,82.293,63.492,82.293z"/>
	<path fill="#F2E8DC" d="M153.667,100.109c-0.531-11.002-1.564-20.47-3.429-25.132c-6.271-15.677-86.746,7.316-86.746,7.316
		s-0.912,10.173-1.586,23.603C92.517,104.651,123.09,100.366,153.667,100.109z"/>
	<path fill="#F0E1CE" d="M69.923,83.833c0,0-1.009,34.316,11.101,34.316c12.113,0,14.131-26.241,15.141-33.306
		c0,0,23.213,4.036,29.269-4.038c0,0-5.046,19.177,3.028,24.223c8.073,5.047,12.111-25.232,12.111-25.232
		s36.334,9.084,24.223-35.326c0,0-8.075-20.186-25.232-12.111c0,0,1.01-31.288-29.269-27.251c0,0-24.223,0-29.271,25.232
		c0,0-32.298-16.148-35.325,23.214C42.672,92.917,69.923,81.815,69.923,83.833z"/>
	<path fill="#E3A037" d="M79.711,151.887c0-2.166-1.757-3.923-3.923-3.923c-2.166,0-3.923,1.757-3.923,3.923
		c0,2.167,1.756,3.923,3.923,3.923C77.954,155.81,79.711,154.054,79.711,151.887z"/>
	<path fill="#E3A037" d="M90.172,143.668c0-2.167-1.757-3.923-3.923-3.923c-2.166,0-3.923,1.757-3.923,3.923
		c0,2.166,1.756,3.923,3.923,3.923C88.415,147.591,90.172,145.834,90.172,143.668z"/>
	<path fill="#E3A037" d="M95.238,158.985c0-3.52-2.854-6.374-6.375-6.374c-3.52,0-6.374,2.854-6.374,6.374
		c0,3.52,2.854,6.375,6.374,6.375C92.384,165.36,95.238,162.506,95.238,158.985z"/>
	<path fill="#F7F1EB" d="M57.296,70.634c0,0-0.131-0.112-0.354-0.341c-0.218-0.231-0.553-0.566-0.928-1.026
		c-0.765-0.913-1.767-2.29-2.73-4.104c-0.484-0.905-0.947-1.923-1.367-3.039c-0.412-1.118-0.778-2.337-1.033-3.643
		c-0.242-1.309-0.426-2.699-0.38-4.15c-0.01-0.72,0.076-1.463,0.154-2.199c0.151-0.737,0.244-1.484,0.485-2.216
		c0.406-1.471,1.101-2.886,1.943-4.148c0.451-0.613,0.881-1.236,1.422-1.743c0.258-0.264,0.51-0.531,0.77-0.781
		c0.275-0.234,0.559-0.452,0.836-0.671c0.543-0.457,1.129-0.809,1.703-1.147c0.563-0.362,1.156-0.605,1.722-0.861
		c0.563-0.266,1.129-0.452,1.678-0.616c0.551-0.162,1.069-0.344,1.589-0.424c0.516-0.095,1.004-0.191,1.47-0.267
		c0.466-0.074,0.915-0.092,1.331-0.123c0.834-0.059,1.552-0.088,2.152-0.037c1.194,0.066,1.863,0.156,1.863,0.156
		s-0.61,0.338-1.655,0.838c-0.527,0.231-1.145,0.562-1.843,0.926c-0.345,0.19-0.728,0.342-1.1,0.568
		c-0.372,0.214-0.764,0.439-1.172,0.675c-0.414,0.212-0.807,0.492-1.216,0.763c-0.411,0.268-0.843,0.523-1.228,0.856
		c-0.393,0.322-0.838,0.589-1.196,0.964c-0.371,0.359-0.793,0.67-1.119,1.078c-0.176,0.191-0.348,0.387-0.532,0.571
		c-0.157,0.205-0.315,0.411-0.473,0.619c-0.339,0.398-0.577,0.865-0.87,1.295c-0.488,0.922-0.965,1.866-1.224,2.921
		c-0.189,0.502-0.257,1.057-0.389,1.585c-0.052,0.554-0.194,1.089-0.212,1.654c-0.115,1.111-0.102,2.249-0.075,3.365
		c0.101,2.236,0.392,4.4,0.718,6.276c0.15,0.943,0.328,1.808,0.473,2.588c0.159,0.784,0.296,1.467,0.41,2.03
		C57.16,69.976,57.296,70.634,57.296,70.634z"/>
	<path fill="#F7F1EB" d="M93.16,26.925c0,0-0.028-0.67,0.168-1.819c0.195-1.148,0.631-2.772,1.539-4.6
		c0.468-0.903,1.032-1.869,1.76-2.812c0.733-0.933,1.575-1.898,2.602-2.739c1.009-0.856,2.157-1.653,3.425-2.268
		c1.247-0.664,2.62-1.106,3.999-1.465c1.392-0.289,2.802-0.506,4.179-0.491c0.344-0.003,0.686-0.008,1.027-0.011
		c0.337,0.027,0.671,0.055,1.006,0.082c0.331,0.029,0.661,0.057,0.988,0.086c0.323,0.046,0.642,0.11,0.957,0.165
		c0.632,0.113,1.251,0.212,1.836,0.396c0.584,0.174,1.17,0.293,1.707,0.504c0.538,0.202,1.06,0.399,1.565,0.589
		c0.499,0.201,0.963,0.437,1.41,0.651c0.443,0.229,0.874,0.417,1.262,0.652c0.387,0.235,0.755,0.448,1.093,0.664
		c0.337,0.217,0.656,0.408,0.94,0.606c0.278,0.209,0.533,0.401,0.764,0.574c0.91,0.708,1.396,1.151,1.396,1.151
		s-0.672-0.053-1.788-0.214c-0.276-0.044-0.583-0.092-0.916-0.146c-0.333-0.043-0.692-0.09-1.077-0.14
		c-0.761-0.109-1.606-0.25-2.528-0.344c-0.912-0.14-1.899-0.22-2.924-0.322c-0.512-0.06-1.037-0.066-1.569-0.104
		c-0.266-0.009-0.533-0.041-0.802-0.047c-0.269-0.003-0.54-0.006-0.812-0.008c-0.272-0.005-0.546-0.003-0.819-0.017
		c-0.273,0.01-0.547,0.02-0.823,0.031c-0.275,0.009-0.551,0.019-0.828,0.029c-0.275,0.024-0.549,0.048-0.824,0.072
		c-1.105,0.086-2.194,0.273-3.264,0.514c-1.062,0.256-2.108,0.57-3.095,0.988c-0.503,0.192-0.975,0.439-1.459,0.657
		c-0.24,0.115-0.463,0.256-0.695,0.381c-0.231,0.125-0.466,0.245-0.683,0.39c-0.902,0.528-1.725,1.145-2.506,1.755
		c-0.781,0.615-1.478,1.268-2.128,1.888c-1.277,1.261-2.293,2.45-2.99,3.317c-0.346,0.435-0.632,0.782-0.809,1.029
		C93.257,26.794,93.16,26.925,93.16,26.925z"/>
	<path fill="#F7F1EB" d="M103.246,73.996c0,0,1.076-0.016,2.959-0.044c0.935-0.018,2.068-0.041,3.368-0.067
		c1.291-0.033,2.747-0.071,4.336-0.112c3.166-0.106,6.835-0.262,10.715-0.605c0.967-0.096,1.948-0.193,2.944-0.292
		c0.986-0.126,1.984-0.253,2.989-0.381c2-0.298,4.02-0.626,5.992-1.092c1.978-0.439,3.917-0.986,5.766-1.637
		c1.84-0.67,3.607-1.417,5.208-2.312c1.6-0.894,3.059-1.897,4.323-2.995c1.267-1.094,2.332-2.289,3.213-3.489
		c0.889-1.197,1.576-2.412,2.114-3.539c0.552-1.123,0.947-2.163,1.26-3.034c0.133-0.44,0.258-0.835,0.378-1.18
		c0.116-0.345,0.183-0.646,0.255-0.888c0.142-0.488,0.217-0.748,0.217-0.748s0.025,0.27,0.072,0.775
		c0.047,0.508,0.088,1.256,0.067,2.217c-0.029,0.477-0.054,1.011-0.104,1.594c-0.071,0.579-0.142,1.212-0.291,1.877
		c-0.262,1.338-0.707,2.841-1.437,4.399c-0.726,1.555-1.725,3.171-3.028,4.681c-1.304,1.508-2.888,2.918-4.673,4.137
		c-0.89,0.612-1.832,1.173-2.81,1.684c-0.97,0.526-1.984,0.983-3.018,1.401c-2.065,0.854-4.23,1.474-6.4,1.984
		c-2.178,0.484-4.369,0.821-6.529,1.025c-2.159,0.216-4.284,0.291-6.332,0.277c-4.097-0.02-7.884-0.423-11.088-0.952
		c-3.206-0.529-5.83-1.197-7.645-1.739c-0.909-0.255-1.612-0.514-2.092-0.674C103.497,74.101,103.246,73.996,103.246,73.996z"/>
	<path fill="#F7F1EB" d="M121.924,169.259c0,0,0.188-0.028,0.54-0.079c0.35-0.045,0.861-0.146,1.496-0.262
		c1.271-0.242,3.055-0.636,5.054-1.298c0.993-0.346,2.052-0.723,3.1-1.234c1.047-0.505,2.118-1.065,3.12-1.77
		c0.26-0.16,0.499-0.354,0.744-0.541c0.243-0.19,0.505-0.356,0.736-0.566c0.466-0.412,0.943-0.815,1.376-1.271
		c0.47-0.418,0.835-0.945,1.271-1.405c0.2-0.248,0.382-0.512,0.576-0.766c0.193-0.255,0.389-0.508,0.546-0.791l0.526-0.813
		c0.18-0.267,0.311-0.57,0.471-0.852c0.148-0.29,0.314-0.567,0.458-0.86c0.135-0.298,0.272-0.596,0.406-0.892
		c0.53-1.191,0.988-2.419,1.359-3.65c0.094-0.307,0.211-0.604,0.285-0.915c0.074-0.31,0.153-0.616,0.237-0.919
		c0.168-0.606,0.33-1.202,0.443-1.798c0.133-0.595,0.262-1.175,0.387-1.735c0.102-0.571,0.2-1.123,0.295-1.653
		c0.226-1.063,0.342-2.057,0.497-2.942c0.165-0.887,0.27-1.667,0.365-2.315c0.204-1.295,0.367-2.053,0.367-2.053
		s0.265,0.712,0.647,1.99c0.196,0.639,0.408,1.42,0.574,2.331c0.173,0.91,0.388,1.943,0.478,3.088
		c0.05,0.575,0.102,1.173,0.155,1.792c0.005,0.625,0.011,1.272,0.016,1.937c0.022,0.668-0.052,1.353-0.109,2.058
		c-0.047,0.706-0.13,1.425-0.271,2.156c-0.129,0.732-0.246,1.479-0.473,2.222c-0.205,0.747-0.392,1.509-0.707,2.248
		c-0.143,0.374-0.288,0.748-0.433,1.125c-0.151,0.375-0.351,0.735-0.531,1.1c-0.194,0.362-0.356,0.737-0.576,1.088l-0.655,1.056
		c-0.215,0.354-0.472,0.683-0.729,1.01c-0.258,0.328-0.504,0.662-0.772,0.979c-0.568,0.611-1.124,1.228-1.759,1.754
		c-1.214,1.113-2.595,1.986-3.974,2.677c-1.375,0.713-2.796,1.157-4.135,1.487c-1.345,0.332-2.637,0.452-3.813,0.515
		c-2.363,0.086-4.284-0.234-5.587-0.566C122.62,169.592,121.924,169.259,121.924,169.259z"/>
</g>
<g>
</g>
<g>
</g>
<g>
</g>
<g>
</g>
<g>
</g>
</svg>
