<?xml version="1.0" encoding="utf-8"?>
<!-- Generator: Adobe Illustrator 24.1.0, SVG Export Plug-In . SVG Version: 6.00 Build 0)  -->
<svg version="1.1" id="Layer_1" xmlns="http://www.w3.org/2000/svg" xmlns:xlink="http://www.w3.org/1999/xlink" x="0px" y="0px"
	 viewBox="0 0 200 200" enable-background="new 0 0 200 200" xml:space="preserve">
<g>
	<path fill="#56921E" d="M51.138,128.829c0,0-41.543-17.491-48.101,7.653c-6.558,25.143,113.694,68.872,166.167,27.33
		c52.474-41.541,17.491-55.754-7.653-51.381C136.409,116.804,51.138,128.829,51.138,128.829z"/>
	<path fill="#59A13B" d="M46.765,137.21c0,0-2.927-69.947-8.393-102.744c0,0,81.639,39.339,114.434-1.111
		c0,0-17.491,83.083-6.558,101.668C146.248,135.024,105.799,174.379,46.765,137.21z"/>
	<path fill="#2C4E35" d="M105.769,124.202c-12.893,1.879-26.24,2.392-39.142,0.274c-7.096-1.165-14.504-3.084-20.829-6.738
		c0.64,11.642,0.968,19.473,0.968,19.473c59.034,37.169,99.483-2.186,99.483-2.186c-2.544-4.324-3.548-12.143-3.592-21.592
		C131.044,118.914,118.454,122.354,105.769,124.202z"/>
	<path fill="#56921E" d="M37.561,30.557c-4.302,8.64,11.949,14.857,20.501,16.282c26.237,4.373,94.017,13.119,95.109-13.12
		C154.196,8.96,51.529,15.181,39.447,27.947C38.604,28.839,37.984,29.71,37.561,30.557z"/>
	<g>
		<path fill="#E2A82B" d="M112.723,113.16c-3.279-3.28-31.702-6.559-40.448-1.094c-8.746,5.466-3.279,43.728-3.279,43.728
			c0,4.373,44.82,5.466,47.007,2.186C118.189,154.702,116.003,116.44,112.723,113.16z M105.447,147.621
			c-1.221,1.831-26.251,1.22-26.251-1.222c0,0-3.052-21.368,1.831-24.42c4.884-3.052,20.757-1.221,22.588,0.61
			C105.447,124.421,106.668,145.789,105.447,147.621z"/>
	</g>
	<path fill="#8FC98D" d="M59.113,23.823c0,0-0.265,0.054-0.749,0.169c-0.485,0.107-1.189,0.31-2.058,0.578
		c-0.867,0.274-1.899,0.674-2.974,1.23c-1.063,0.558-2.182,1.327-2.926,2.345c-0.75,1.014-1.019,2.224-0.783,3.634
		c0.018,0.173,0.056,0.351,0.106,0.533c0.048,0.182,0.068,0.36,0.137,0.547c0.059,0.184,0.119,0.371,0.179,0.558l0.022,0.07
		c-0.055-0.178-0.011-0.038-0.021-0.072l0.009,0.021l0.017,0.041l0.067,0.164c0.043,0.104,0.096,0.248,0.123,0.261
		c0.032,0.043,0.06,0.087,0.086,0.131l0.132,0.189c0.079,0.131,0.2,0.259,0.298,0.39c0.233,0.255,0.479,0.514,0.787,0.756
		c1.195,0.987,2.874,1.801,4.651,2.493c1.795,0.68,3.722,1.261,5.69,1.749c1.964,0.51,3.973,0.922,5.962,1.318
		c0.999,0.185,1.991,0.369,2.972,0.551c0.986,0.168,1.96,0.334,2.919,0.497c3.846,0.63,7.469,1.154,10.587,1.598
		c3.119,0.441,5.734,0.801,7.573,1.044c0.923,0.112,1.649,0.2,2.143,0.26c0.499,0.054,0.764,0.083,0.764,0.083
		s-0.257,0.08-0.747,0.196c-0.49,0.108-1.212,0.284-2.139,0.428c-0.926,0.152-2.055,0.328-3.353,0.464
		c-1.298,0.14-2.765,0.259-4.367,0.34c-3.204,0.161-6.952,0.162-10.965-0.131c-2.005-0.15-4.081-0.357-6.182-0.681
		c-2.106-0.306-4.235-0.732-6.362-1.256c-2.121-0.556-4.241-1.206-6.289-2.106c-1.027-0.441-2.036-0.952-3.008-1.553
		c-0.974-0.601-1.925-1.277-2.776-2.145c-0.43-0.42-0.828-0.906-1.192-1.415c-0.171-0.273-0.354-0.526-0.497-0.822l-0.217-0.439
		l-0.209-0.521c-0.081-0.2-0.095-0.285-0.129-0.404l-0.046-0.172l-0.052-0.178l-0.019-0.102c-0.051-0.27-0.102-0.539-0.153-0.806
		c-0.056-0.262-0.067-0.55-0.1-0.819c-0.033-0.27-0.044-0.546-0.037-0.827c-0.006-1.102,0.164-2.233,0.591-3.246
		c0.424-1.013,1.062-1.879,1.775-2.525c1.443-1.295,3.004-1.854,4.332-2.191c1.341-0.328,2.514-0.402,3.465-0.426
		c0.953-0.032,1.696,0.048,2.198,0.094C58.848,23.768,59.113,23.823,59.113,23.823z"/>
	<path fill="#8FC98D" d="M21.213,130.963c0,0-0.295,0.061-0.835,0.189c-0.539,0.128-1.324,0.346-2.287,0.66
		c-0.957,0.331-2.1,0.782-3.246,1.455c-1.135,0.667-2.271,1.618-2.813,2.82c-0.549,1.187-0.509,2.629,0.035,4.251l0.051,0.151
		l0.026,0.076l0.013,0.038l0.006,0.019c0.008,0.024-0.044-0.146-0.018-0.063l0.141,0.357c0.104,0.232,0.135,0.247,0.239,0.436
		c0.194,0.329,0.44,0.677,0.71,1.023c0.549,0.696,1.25,1.38,1.995,2.058c1.506,1.354,3.27,2.644,5.115,3.893
		c1.854,1.245,3.808,2.443,5.793,3.606c1.99,1.157,4.01,2.279,6.019,3.354c2.007,1.081,4.01,2.104,5.951,3.09
		c1.95,0.972,3.839,1.907,5.646,2.767c1.807,0.86,3.524,1.656,5.119,2.37c3.192,1.426,5.897,2.525,7.836,3.157
		c0.972,0.306,1.748,0.527,2.289,0.619c0.541,0.097,0.841,0.117,0.841,0.117s-0.072,0.016-0.214,0.047
		c-0.142,0.035-0.353,0.07-0.636,0.105c-0.56,0.056-1.398,0.108-2.451,0.032c-1.051-0.069-2.331-0.193-3.771-0.449
		c-1.445-0.245-3.056-0.593-4.795-1.04c-1.738-0.447-3.603-0.991-5.55-1.64c-1.949-0.644-3.983-1.382-6.058-2.224
		c-2.08-0.83-4.194-1.771-6.321-2.784c-1.059-0.515-2.121-1.047-3.183-1.595c-1.055-0.558-2.105-1.14-3.151-1.735
		c-2.087-1.197-4.132-2.49-6.086-3.885c-1.952-1.402-3.813-2.904-5.486-4.616c-0.834-0.859-1.614-1.775-2.304-2.805
		c-0.34-0.521-0.667-1.057-0.933-1.66c-0.127-0.275-0.303-0.735-0.376-0.983l-0.103-0.369l-0.032-0.109l-0.006-0.027l-0.012-0.054
		l-0.022-0.109l-0.045-0.216c-0.234-1.153-0.312-2.36-0.132-3.548c0.163-1.185,0.626-2.327,1.276-3.234
		c0.643-0.918,1.459-1.582,2.248-2.072c0.794-0.494,1.594-0.803,2.335-1.043c1.494-0.46,2.804-0.581,3.869-0.622
		c1.065-0.05,1.895,0.021,2.455,0.074C20.919,130.899,21.213,130.963,21.213,130.963z"/>
	<path fill="#F7F1EB" d="M96.283,113.471c0,0,0.162-0.076,0.477-0.183c0.314-0.101,0.78-0.262,1.387-0.394
		c1.214-0.266,3.006-0.534,5.242-0.252c1.112,0.157,2.341,0.45,3.591,1.046c1.241,0.596,2.516,1.503,3.513,2.771
		c0.263,0.305,0.48,0.647,0.707,0.988c0.198,0.353,0.408,0.71,0.573,1.083c0.165,0.373,0.335,0.751,0.456,1.139l0.097,0.292
		l0.046,0.147l0.022,0.073l0.032,0.129l0.122,0.486c0.159,0.647,0.342,1.285,0.457,2.04l0.191,1.092l0.149,1.054
		c0.175,1.405,0.294,2.796,0.343,4.166c0.072,1.369,0.059,2.711,0.031,4.008c-0.033,1.296-0.113,2.546-0.215,3.727
		c-0.111,1.181-0.24,2.296-0.392,3.322c-0.302,2.052-0.67,3.752-0.978,4.936c-0.311,1.185-0.545,1.855-0.545,1.855
		s-0.179-0.687-0.431-1.879c-0.125-0.596-0.263-1.318-0.41-2.144c-0.15-0.826-0.295-1.756-0.453-2.767
		c-0.147-1.012-0.304-2.104-0.45-3.257c-0.146-1.153-0.295-2.364-0.433-3.613c-0.138-1.243-0.281-2.527-0.426-3.832
		c-0.073-0.646-0.147-1.298-0.22-1.952c-0.062-0.656-0.152-1.303-0.241-1.948l-0.115-0.965l-0.14-0.914
		c-0.055-0.311-0.073-0.592-0.138-0.931c-0.061-0.331-0.123-0.661-0.183-0.99l-0.09-0.492l-0.075-0.317
		c-0.045-0.256-0.127-0.488-0.198-0.725c-0.16-0.466-0.355-0.905-0.592-1.315c-0.469-0.823-1.119-1.534-1.878-2.134
		c-0.758-0.602-1.62-1.08-2.466-1.473c-1.71-0.771-3.347-1.202-4.502-1.481C96.985,113.587,96.283,113.471,96.283,113.471z"/>
</g>
<g>
</g>
<g>
</g>
<g>
</g>
<g>
</g>
<g>
</g>
</svg>
