<?xml version="1.0" encoding="utf-8"?>
<!-- Generator: Adobe Illustrator 24.1.0, SVG Export Plug-In . SVG Version: 6.00 Build 0)  -->
<svg version="1.1" id="Layer_1" xmlns="http://www.w3.org/2000/svg" xmlns:xlink="http://www.w3.org/1999/xlink" x="0px" y="0px"
	 viewBox="0 0 200 200" enable-background="new 0 0 200 200" xml:space="preserve">
<g>
	<path fill="#F6AE96" d="M21.676,145.1c0,0,0.004-0.269-0.257-0.688c-0.247-0.425-0.694-1.007-1.262-1.782
		c-1.135-1.546-2.835-3.848-4.536-7.074c-0.86-1.605-1.72-3.436-2.546-5.479c-0.416-1.019-0.823-2.092-1.205-3.218
		c-0.097-0.29-0.193-0.545-0.292-0.872c-0.09-0.282-0.18-0.567-0.272-0.855c-0.178-0.583-0.379-1.146-0.548-1.77
		c-0.172-0.622-0.347-1.254-0.525-1.895c-0.181-0.644-0.311-1.291-0.473-1.953c-0.331-1.318-0.574-2.689-0.857-4.098
		c-0.13-0.706-0.236-1.423-0.35-2.151c-0.114-0.726-0.229-1.463-0.306-2.213c-0.087-0.749-0.175-1.509-0.264-2.274
		c-0.061-0.77-0.124-1.549-0.186-2.335c-0.484-6.299-0.183-13.21,1.003-20.419c0.175-0.897,0.351-1.799,0.528-2.708
		c0.092-0.454,0.185-0.909,0.277-1.367c0.103-0.454,0.226-0.905,0.338-1.361c0.231-0.911,0.464-1.827,0.698-2.749
		c0.261-0.914,0.554-1.824,0.834-2.745c0.524-1.857,1.258-3.662,1.932-5.51l0.129-0.346l0.155-0.378l0.273-0.655
		c0.182-0.436,0.365-0.874,0.548-1.312c0.379-0.885,0.693-1.738,1.168-2.678c0.444-0.923,0.89-1.849,1.337-2.779l0.338-0.699
		l0.363-0.667c0.246-0.443,0.491-0.887,0.737-1.333c0.503-0.882,0.968-1.795,1.511-2.663c0.542-0.868,1.087-1.739,1.632-2.614
		c0.278-0.434,0.537-0.882,0.831-1.307l0.889-1.272c0.594-0.849,1.191-1.703,1.788-2.556c0.629-0.829,1.287-1.642,1.933-2.467
		c0.652-0.819,1.284-1.659,1.995-2.435c1.392-1.575,2.753-3.195,4.268-4.679c0.743-0.755,1.478-1.521,2.232-2.27
		c0.787-0.715,1.574-1.43,2.363-2.147c1.546-1.469,3.251-2.76,4.9-4.119c0.815-0.692,1.7-1.295,2.564-1.926l2.603-1.879
		c7.1-4.785,14.844-8.61,22.813-11.289c0.998-0.328,1.994-0.656,2.988-0.983l0.745-0.244l0.745-0.218l1.439-0.414l0.727-0.203
		l0.773-0.194l1.543-0.386c1.029-0.261,2.025-0.451,3.035-0.678c4.029-0.832,8.053-1.414,12.029-1.71
		c7.949-0.624,15.688-0.256,22.875,0.935c3.591,0.613,7.048,1.395,10.333,2.345c3.279,0.978,6.386,2.104,9.304,3.325
		c5.806,2.523,10.835,5.428,14.962,8.423c4.128,2.997,7.423,5.967,9.935,8.583c2.517,2.613,4.293,4.828,5.474,6.35
		c1.145,1.549,1.756,2.375,1.756,2.375s-0.74-0.708-2.129-2.037c-0.172-0.166-0.355-0.343-0.546-0.527
		c-0.2-0.177-0.41-0.364-0.63-0.56c-0.439-0.391-0.919-0.817-1.437-1.277c-0.507-0.469-1.095-0.928-1.707-1.431
		c-0.617-0.497-1.245-1.054-1.955-1.586c-2.79-2.189-6.324-4.642-10.58-7.04c-1.072-0.587-2.188-1.171-3.332-1.771
		c-0.583-0.28-1.175-0.563-1.774-0.851c-0.299-0.144-0.6-0.289-0.904-0.434c-0.309-0.134-0.62-0.269-0.932-0.405
		c-0.625-0.269-1.258-0.543-1.899-0.82c-0.643-0.269-1.307-0.514-1.97-0.776c-1.319-0.543-2.718-0.975-4.118-1.47
		c-2.841-0.893-5.821-1.73-8.952-2.386c-3.134-0.64-6.395-1.169-9.769-1.5c-6.745-0.684-13.924-0.618-21.236,0.256
		c-3.654,0.457-7.344,1.092-11.017,1.976c-0.908,0.236-1.851,0.445-2.738,0.703l-1.338,0.379l-0.67,0.189l-0.707,0.221l-1.431,0.443
		l-0.691,0.215l-0.678,0.239c-0.904,0.318-1.81,0.635-2.718,0.954c-7.226,2.627-14.261,6.12-20.705,10.516
		c-6.452,4.379-12.314,9.609-17.439,15.336c-0.666,0.695-1.254,1.453-1.864,2.19c-0.607,0.74-1.214,1.478-1.818,2.214
		c-0.57,0.764-1.139,1.525-1.706,2.284L29.197,56.8c-0.282,0.38-0.529,0.782-0.796,1.17c-0.524,0.784-1.048,1.563-1.569,2.342
		c-0.523,0.778-0.968,1.597-1.455,2.39c-0.239,0.399-0.478,0.797-0.716,1.194l-0.36,0.594l-0.319,0.596
		c-0.428,0.792-0.853,1.582-1.277,2.369c-0.435,0.749-0.827,1.674-1.234,2.519c-0.202,0.43-0.404,0.859-0.605,1.287l-0.301,0.641
		l-0.075,0.161l-0.038,0.079c0.03-0.069-0.01,0.026-0.012,0.031l-0.131,0.311c-0.352,0.828-0.701,1.654-1.049,2.474
		c-0.17,0.412-0.366,0.814-0.515,1.231c-0.154,0.416-0.308,0.831-0.461,1.245c-0.302,0.829-0.621,1.65-0.909,2.475
		c-0.262,0.834-0.523,1.664-0.782,2.488c-0.128,0.414-0.265,0.823-0.384,1.236c-0.109,0.416-0.217,0.831-0.325,1.244
		c-0.221,0.828-0.439,1.649-0.657,2.465c-0.18,0.826-0.36,1.646-0.537,2.46c-0.088,0.408-0.177,0.815-0.264,1.22
		c-0.07,0.408-0.14,0.815-0.209,1.22c-0.138,0.813-0.276,1.618-0.413,2.418c-0.105,0.804-0.209,1.604-0.313,2.395
		c-0.052,0.397-0.103,0.792-0.155,1.185c-0.035,0.395-0.071,0.789-0.105,1.18c-0.07,0.785-0.139,1.562-0.207,2.332
		c-0.037,0.774-0.075,1.539-0.111,2.296c-0.018,0.381-0.036,0.758-0.054,1.134c-0.005,0.377-0.011,0.75-0.016,1.124
		c-0.098,2.984,0.07,5.845,0.24,8.57c0.216,2.717,0.549,5.31,0.942,7.679c0.832,4.87,1.976,8.962,3.194,12.288
		c1.219,3.313,2.468,5.825,3.365,7.523c0.447,0.849,0.779,1.517,0.957,1.989c0.085,0.238,0.136,0.423,0.142,0.554
		C21.689,145.036,21.672,145.1,21.676,145.1z"/>
	<path fill="#F4D698" d="M27.958,150.586c0,0.001,0.004-0.268-0.256-0.688c-0.247-0.424-0.694-1.005-1.263-1.781
		c-1.135-1.547-2.834-3.848-4.536-7.073c-0.86-1.606-1.72-3.437-2.546-5.478c-0.416-1.021-0.823-2.093-1.205-3.219
		c-0.097-0.29-0.193-0.545-0.292-0.871c-0.09-0.283-0.181-0.569-0.272-0.856c-0.178-0.582-0.379-1.146-0.547-1.77
		c-0.172-0.622-0.347-1.253-0.524-1.894c-0.181-0.645-0.312-1.291-0.473-1.953c-0.331-1.318-0.574-2.69-0.857-4.098
		c-0.13-0.705-0.237-1.424-0.35-2.151c-0.114-0.727-0.229-1.464-0.306-2.213c-0.087-0.751-0.175-1.509-0.264-2.275
		c-0.062-0.77-0.124-1.548-0.187-2.335c-0.484-6.299-0.183-13.209,1.003-20.419c0.175-0.896,0.351-1.799,0.529-2.708
		c0.092-0.454,0.184-0.91,0.277-1.368c0.103-0.454,0.226-0.905,0.339-1.361c0.231-0.91,0.463-1.826,0.697-2.748
		c0.261-0.914,0.554-1.825,0.834-2.747c0.524-1.855,1.258-3.659,1.932-5.509l0.129-0.346l0.155-0.379l0.273-0.654
		c0.182-0.436,0.364-0.873,0.547-1.313c0.379-0.885,0.693-1.737,1.168-2.678c0.444-0.923,0.89-1.849,1.337-2.779l0.338-0.698
		l0.363-0.667c0.245-0.443,0.49-0.888,0.736-1.332c0.503-0.884,0.968-1.796,1.51-2.665c0.543-0.868,1.087-1.739,1.632-2.614
		c0.278-0.434,0.538-0.881,0.832-1.306l0.888-1.272c0.594-0.851,1.191-1.702,1.788-2.556c0.63-0.83,1.288-1.643,1.933-2.467
		c0.652-0.819,1.284-1.658,1.995-2.435c1.392-1.576,2.753-3.195,4.268-4.679c0.743-0.756,1.478-1.522,2.232-2.271
		c0.787-0.715,1.574-1.43,2.363-2.147c1.545-1.469,3.25-2.76,4.9-4.119c0.815-0.693,1.7-1.296,2.563-1.927l2.603-1.878
		c7.1-4.785,14.844-8.61,22.813-11.288c0.998-0.329,1.994-0.658,2.988-0.985l0.745-0.243l0.746-0.217l1.44-0.416l0.727-0.202
		l0.773-0.195l1.542-0.386c1.029-0.261,2.026-0.451,3.035-0.677c4.03-0.833,8.053-1.414,12.029-1.711
		c7.949-0.624,15.688-0.257,22.874,0.935c3.591,0.613,7.048,1.395,10.333,2.345c3.28,0.978,6.386,2.105,9.304,3.325
		c5.806,2.523,10.835,5.429,14.962,8.424c4.128,2.995,7.423,5.966,9.935,8.581c2.516,2.614,4.292,4.829,5.474,6.352
		c1.145,1.548,1.756,2.374,1.756,2.374s-0.74-0.708-2.129-2.037c-0.172-0.167-0.354-0.343-0.546-0.528
		c-0.2-0.178-0.41-0.364-0.63-0.56c-0.439-0.39-0.919-0.816-1.437-1.276c-0.507-0.47-1.095-0.929-1.707-1.432
		c-0.617-0.497-1.245-1.054-1.956-1.586c-2.79-2.188-6.324-4.641-10.579-7.041c-1.071-0.587-2.187-1.17-3.331-1.771
		c-0.583-0.28-1.175-0.563-1.775-0.851c-0.299-0.144-0.6-0.288-0.904-0.433c-0.309-0.135-0.62-0.269-0.933-0.405
		c-0.625-0.27-1.258-0.543-1.898-0.821c-0.643-0.269-1.307-0.513-1.97-0.776c-1.318-0.544-2.718-0.975-4.118-1.47
		c-2.841-0.893-5.821-1.73-8.952-2.386c-3.134-0.639-6.395-1.17-9.769-1.501c-6.745-0.683-13.924-0.617-21.236,0.256
		c-3.653,0.458-7.344,1.093-11.017,1.976c-0.908,0.236-1.852,0.447-2.738,0.704l-1.338,0.378l-0.67,0.19l-0.707,0.221l-1.431,0.444
		l-0.691,0.215l-0.677,0.238c-0.904,0.318-1.81,0.635-2.718,0.955c-7.226,2.626-14.261,6.12-20.705,10.514
		c-6.452,4.38-12.315,9.611-17.439,15.336c-0.666,0.695-1.254,1.454-1.864,2.19c-0.607,0.74-1.213,1.479-1.818,2.215
		c-0.57,0.763-1.138,1.524-1.705,2.284l-0.851,1.136c-0.282,0.381-0.53,0.782-0.796,1.171c-0.525,0.784-1.048,1.563-1.569,2.343
		c-0.523,0.778-0.968,1.597-1.455,2.39c-0.239,0.398-0.478,0.796-0.716,1.194l-0.36,0.594l-0.319,0.595
		c-0.428,0.793-0.853,1.582-1.277,2.369c-0.435,0.75-0.827,1.674-1.235,2.519c-0.202,0.43-0.403,0.859-0.605,1.287l-0.301,0.642
		l-0.075,0.16l-0.037,0.08c0.03-0.069-0.011,0.025-0.012,0.031l-0.132,0.31c-0.351,0.829-0.7,1.654-1.048,2.474
		c-0.17,0.411-0.367,0.814-0.515,1.231c-0.154,0.415-0.308,0.831-0.461,1.244c-0.302,0.829-0.621,1.649-0.908,2.475
		c-0.263,0.834-0.523,1.664-0.782,2.489c-0.127,0.412-0.265,0.822-0.384,1.235c-0.109,0.415-0.217,0.831-0.325,1.244
		c-0.221,0.826-0.44,1.648-0.657,2.464c-0.181,0.826-0.359,1.647-0.538,2.46c-0.089,0.408-0.176,0.815-0.265,1.22
		c-0.07,0.408-0.139,0.816-0.208,1.221c-0.139,0.812-0.276,1.618-0.412,2.418c-0.105,0.804-0.21,1.603-0.313,2.395
		c-0.052,0.397-0.104,0.792-0.156,1.185c-0.035,0.395-0.07,0.789-0.105,1.18c-0.07,0.785-0.139,1.562-0.207,2.333
		c-0.037,0.773-0.075,1.539-0.111,2.297c-0.018,0.378-0.036,0.757-0.054,1.132c-0.005,0.377-0.011,0.751-0.017,1.124
		c-0.098,2.984,0.071,5.844,0.24,8.57c0.215,2.716,0.549,5.311,0.942,7.679c0.831,4.869,1.976,8.961,3.193,12.287
		c1.219,3.314,2.468,5.826,3.365,7.523c0.448,0.85,0.779,1.517,0.957,1.989c0.085,0.239,0.136,0.424,0.142,0.554
		C27.972,150.523,27.955,150.586,27.958,150.586z"/>
	<path fill="#ECF29C" d="M32.664,156.381c0,0,0.004-0.269-0.257-0.689c-0.247-0.424-0.693-1.005-1.262-1.781
		c-1.135-1.546-2.835-3.848-4.536-7.074c-0.86-1.604-1.72-3.437-2.546-5.478c-0.416-1.019-0.823-2.092-1.205-3.217
		c-0.097-0.291-0.193-0.547-0.293-0.872c-0.09-0.283-0.18-0.568-0.272-0.856c-0.178-0.582-0.378-1.146-0.547-1.771
		c-0.172-0.621-0.347-1.253-0.525-1.893c-0.181-0.644-0.311-1.291-0.473-1.953c-0.331-1.317-0.575-2.689-0.857-4.098
		c-0.13-0.705-0.236-1.423-0.35-2.15c-0.115-0.728-0.229-1.465-0.306-2.214c-0.087-0.75-0.175-1.508-0.264-2.275
		c-0.062-0.77-0.124-1.548-0.187-2.335c-0.484-6.3-0.183-13.209,1.003-20.419c0.175-0.896,0.352-1.799,0.529-2.707
		c0.092-0.455,0.184-0.911,0.277-1.368c0.103-0.455,0.226-0.906,0.338-1.362c0.231-0.91,0.464-1.826,0.698-2.748
		c0.261-0.915,0.555-1.825,0.834-2.746c0.524-1.856,1.257-3.662,1.932-5.51l0.129-0.346l0.155-0.378l0.272-0.655
		c0.182-0.436,0.365-0.874,0.548-1.313c0.379-0.885,0.693-1.737,1.169-2.677c0.444-0.924,0.89-1.85,1.337-2.78l0.338-0.698
		l0.363-0.667c0.245-0.444,0.491-0.888,0.736-1.333c0.503-0.883,0.969-1.796,1.51-2.664c0.542-0.868,1.087-1.739,1.633-2.614
		c0.277-0.433,0.538-0.88,0.832-1.306l0.888-1.273c0.594-0.85,1.191-1.701,1.789-2.555c0.63-0.83,1.287-1.643,1.933-2.466
		c0.652-0.82,1.284-1.66,1.995-2.436c1.392-1.576,2.753-3.195,4.268-4.679c0.743-0.756,1.478-1.522,2.232-2.27
		c0.787-0.714,1.574-1.431,2.363-2.147c1.545-1.47,3.25-2.76,4.9-4.119c0.815-0.692,1.7-1.296,2.563-1.927l2.603-1.878
		c7.1-4.785,14.844-8.611,22.813-11.289c0.998-0.329,1.994-0.656,2.988-0.984l0.745-0.243l0.746-0.217l1.439-0.416l0.727-0.202
		l0.773-0.195l1.543-0.386c1.029-0.262,2.025-0.451,3.034-0.679c4.029-0.831,8.053-1.412,12.029-1.711
		c7.949-0.624,15.688-0.255,22.875,0.936c3.591,0.612,7.047,1.395,10.334,2.345c3.279,0.978,6.386,2.105,9.303,3.324
		c5.806,2.523,10.835,5.429,14.962,8.424c4.129,2.996,7.423,5.967,9.935,8.582c2.516,2.612,4.293,4.828,5.474,6.35
		c1.145,1.548,1.756,2.374,1.756,2.374s-0.74-0.708-2.129-2.038c-0.172-0.165-0.354-0.341-0.546-0.527
		c-0.2-0.178-0.41-0.364-0.63-0.56c-0.439-0.39-0.919-0.816-1.437-1.276c-0.507-0.469-1.096-0.929-1.708-1.432
		c-0.617-0.496-1.245-1.052-1.956-1.586c-2.79-2.188-6.324-4.642-10.579-7.04c-1.072-0.587-2.188-1.172-3.332-1.771
		c-0.583-0.281-1.175-0.564-1.775-0.852c-0.299-0.143-0.6-0.288-0.903-0.434c-0.309-0.133-0.62-0.268-0.933-0.404
		c-0.625-0.27-1.258-0.543-1.898-0.821c-0.643-0.269-1.307-0.514-1.97-0.775c-1.318-0.543-2.717-0.976-4.118-1.47
		c-2.84-0.893-5.821-1.73-8.952-2.386c-3.134-0.641-6.395-1.17-9.769-1.501c-6.745-0.683-13.924-0.617-21.236,0.256
		c-3.654,0.457-7.344,1.092-11.017,1.976c-0.909,0.236-1.852,0.447-2.738,0.704l-1.338,0.379l-0.67,0.188l-0.707,0.221l-1.431,0.444
		l-0.691,0.215l-0.678,0.239c-0.904,0.318-1.81,0.637-2.718,0.955c-7.226,2.627-14.261,6.12-20.704,10.515
		c-6.453,4.378-12.315,9.609-17.439,15.335c-0.667,0.695-1.254,1.454-1.864,2.191c-0.607,0.739-1.214,1.478-1.818,2.213
		c-0.57,0.764-1.138,1.525-1.705,2.285l-0.852,1.137c-0.282,0.379-0.529,0.782-0.796,1.17c-0.524,0.784-1.048,1.564-1.569,2.342
		c-0.523,0.778-0.968,1.598-1.455,2.39c-0.239,0.399-0.478,0.797-0.716,1.195l-0.36,0.594l-0.319,0.595
		c-0.427,0.793-0.853,1.583-1.277,2.37c-0.435,0.749-0.827,1.673-1.235,2.518c-0.202,0.43-0.403,0.859-0.604,1.288l-0.301,0.641
		l-0.075,0.16l-0.038,0.08c0.03-0.07-0.011,0.025-0.013,0.03l-0.131,0.311c-0.351,0.829-0.701,1.653-1.048,2.474
		c-0.171,0.411-0.367,0.814-0.516,1.231c-0.154,0.417-0.307,0.831-0.461,1.245c-0.303,0.829-0.621,1.65-0.909,2.476
		c-0.262,0.834-0.523,1.663-0.782,2.488c-0.127,0.412-0.265,0.823-0.384,1.235c-0.108,0.417-0.217,0.83-0.325,1.244
		c-0.221,0.828-0.439,1.65-0.657,2.465c-0.181,0.826-0.36,1.647-0.538,2.46c-0.088,0.408-0.176,0.815-0.264,1.22
		c-0.07,0.408-0.139,0.816-0.208,1.221c-0.139,0.813-0.276,1.618-0.413,2.418c-0.105,0.805-0.21,1.603-0.313,2.395
		c-0.052,0.397-0.104,0.792-0.155,1.186c-0.036,0.395-0.071,0.787-0.105,1.179c-0.07,0.785-0.139,1.562-0.207,2.333
		c-0.037,0.773-0.075,1.539-0.111,2.297c-0.018,0.379-0.036,0.757-0.054,1.133c-0.005,0.376-0.011,0.75-0.017,1.122
		c-0.098,2.985,0.071,5.845,0.24,8.571c0.216,2.717,0.549,5.31,0.942,7.68c0.831,4.869,1.976,8.96,3.194,12.287
		c1.219,3.314,2.468,5.825,3.365,7.523c0.447,0.851,0.779,1.518,0.957,1.99c0.084,0.238,0.137,0.423,0.142,0.555
		C32.678,156.317,32.66,156.381,32.664,156.381z"/>
	<path fill="#9FEFC7" d="M38.399,162.386c-0.001,0,0.003-0.269-0.258-0.688c-0.247-0.423-0.693-1.005-1.262-1.78
		c-1.135-1.548-2.834-3.848-4.536-7.075c-0.86-1.605-1.719-3.437-2.546-5.477c-0.416-1.021-0.823-2.092-1.204-3.219
		c-0.097-0.291-0.194-0.546-0.293-0.871c-0.09-0.284-0.181-0.569-0.272-0.857c-0.178-0.583-0.379-1.146-0.547-1.77
		c-0.172-0.622-0.347-1.253-0.524-1.894c-0.182-0.644-0.312-1.291-0.473-1.952c-0.331-1.318-0.575-2.69-0.857-4.098
		c-0.13-0.705-0.236-1.424-0.35-2.151c-0.115-0.728-0.229-1.464-0.306-2.214c-0.087-0.749-0.175-1.508-0.264-2.274
		c-0.062-0.769-0.124-1.548-0.187-2.335c-0.484-6.299-0.182-13.209,1.003-20.419c0.175-0.896,0.351-1.8,0.529-2.708
		c0.093-0.454,0.185-0.909,0.277-1.366c0.103-0.455,0.226-0.906,0.339-1.361c0.231-0.911,0.464-1.827,0.697-2.749
		c0.261-0.914,0.554-1.825,0.834-2.746c0.524-1.856,1.258-3.661,1.932-5.51l0.129-0.346l0.155-0.378l0.273-0.654
		c0.182-0.437,0.365-0.874,0.547-1.314c0.38-0.883,0.693-1.737,1.168-2.677c0.444-0.923,0.89-1.85,1.338-2.78l0.338-0.698
		l0.363-0.668c0.245-0.443,0.491-0.887,0.737-1.332c0.504-0.882,0.968-1.796,1.51-2.663c0.542-0.869,1.087-1.74,1.632-2.615
		c0.278-0.434,0.538-0.881,0.832-1.307l0.888-1.272c0.595-0.849,1.191-1.701,1.789-2.555c0.63-0.83,1.287-1.642,1.933-2.467
		c0.653-0.819,1.284-1.659,1.995-2.434c1.392-1.577,2.753-3.197,4.268-4.68c0.743-0.756,1.478-1.521,2.232-2.27
		c0.787-0.715,1.575-1.43,2.363-2.147c1.545-1.47,3.25-2.76,4.9-4.119c0.815-0.693,1.7-1.296,2.564-1.927l2.603-1.879
		c7.1-4.785,14.844-8.61,22.813-11.288c0.998-0.329,1.994-0.657,2.988-0.984l0.745-0.245l0.746-0.217l1.439-0.415l0.727-0.202
		l0.773-0.193l1.543-0.387c1.029-0.262,2.025-0.451,3.035-0.678c4.029-0.832,8.053-1.414,12.029-1.711
		c7.949-0.624,15.688-0.256,22.874,0.935c3.591,0.613,7.048,1.396,10.334,2.345c3.28,0.978,6.386,2.104,9.304,3.325
		c5.806,2.523,10.835,5.429,14.962,8.424c4.128,2.995,7.422,5.966,9.934,8.581c2.516,2.614,4.292,4.829,5.474,6.352
		c1.145,1.549,1.756,2.375,1.756,2.375s-0.741-0.709-2.129-2.038c-0.173-0.166-0.354-0.342-0.547-0.526
		c-0.2-0.177-0.41-0.365-0.63-0.56c-0.439-0.389-0.919-0.817-1.437-1.276c-0.507-0.469-1.096-0.928-1.708-1.431
		c-0.617-0.497-1.245-1.054-1.955-1.587c-2.79-2.189-6.324-4.641-10.579-7.04c-1.072-0.587-2.188-1.172-3.332-1.773
		c-0.583-0.278-1.174-0.563-1.775-0.851c-0.299-0.143-0.6-0.288-0.904-0.433c-0.306-0.14-0.62-0.268-0.932-0.404
		c-0.625-0.27-1.258-0.543-1.898-0.821c-0.643-0.27-1.307-0.514-1.97-0.776c-1.319-0.543-2.717-0.975-4.118-1.471
		c-2.841-0.892-5.821-1.729-8.952-2.386c-3.134-0.638-6.395-1.168-9.769-1.5c-6.745-0.682-13.924-0.618-21.237,0.257
		c-3.653,0.457-7.344,1.092-11.017,1.976c-0.908,0.236-1.851,0.445-2.738,0.702l-1.339,0.38l-0.67,0.19l-0.707,0.221l-1.43,0.444
		l-0.692,0.214l-0.678,0.239c-0.904,0.317-1.81,0.635-2.718,0.954c-7.226,2.628-14.261,6.12-20.705,10.515
		c-6.452,4.38-12.314,9.61-17.439,15.337c-0.666,0.695-1.254,1.453-1.865,2.19c-0.607,0.74-1.214,1.478-1.819,2.214
		c-0.57,0.763-1.138,1.524-1.705,2.284l-0.851,1.137c-0.282,0.379-0.53,0.781-0.797,1.169c-0.524,0.784-1.047,1.564-1.569,2.343
		c-0.522,0.777-0.968,1.597-1.455,2.39c-0.24,0.399-0.478,0.797-0.716,1.195l-0.36,0.593l-0.319,0.595
		c-0.427,0.793-0.853,1.583-1.277,2.37c-0.435,0.749-0.827,1.672-1.235,2.518c-0.202,0.43-0.404,0.859-0.604,1.288l-0.301,0.64
		l-0.075,0.161l-0.038,0.08c0.03-0.07-0.01,0.025-0.012,0.03l-0.131,0.312c-0.351,0.828-0.7,1.652-1.048,2.474
		c-0.171,0.411-0.366,0.812-0.516,1.23c-0.154,0.417-0.307,0.831-0.46,1.246c-0.303,0.829-0.621,1.649-0.909,2.474
		c-0.262,0.835-0.523,1.664-0.781,2.488c-0.128,0.414-0.265,0.823-0.385,1.235c-0.108,0.417-0.217,0.831-0.324,1.245
		c-0.221,0.827-0.44,1.649-0.658,2.464c-0.18,0.826-0.359,1.647-0.537,2.461c-0.089,0.407-0.177,0.815-0.265,1.219
		c-0.07,0.409-0.139,0.816-0.208,1.22c-0.139,0.813-0.276,1.619-0.413,2.418c-0.105,0.805-0.21,1.603-0.313,2.396
		c-0.052,0.396-0.104,0.791-0.155,1.185c-0.035,0.395-0.071,0.788-0.105,1.18c-0.07,0.784-0.138,1.562-0.207,2.331
		c-0.037,0.773-0.075,1.54-0.111,2.298c-0.018,0.379-0.036,0.758-0.054,1.133c-0.006,0.375-0.011,0.751-0.017,1.123
		c-0.098,2.984,0.07,5.844,0.24,8.571c0.215,2.716,0.549,5.31,0.942,7.679c0.831,4.869,1.977,8.962,3.194,12.286
		c1.219,3.315,2.468,5.826,3.365,7.524c0.448,0.85,0.779,1.517,0.957,1.989c0.084,0.238,0.136,0.423,0.142,0.555
		C38.412,162.323,38.395,162.387,38.399,162.386z"/>
	<path fill="#A3C1ED" d="M42.682,170.238c-0.001,0,0.003-0.269-0.257-0.688c-0.247-0.424-0.694-1.007-1.262-1.782
		c-1.135-1.547-2.835-3.847-4.536-7.074c-0.86-1.605-1.719-3.436-2.546-5.477c-0.416-1.02-0.823-2.092-1.204-3.219
		c-0.097-0.291-0.194-0.546-0.293-0.872c-0.09-0.283-0.181-0.568-0.272-0.856c-0.178-0.581-0.379-1.146-0.547-1.77
		c-0.173-0.622-0.347-1.253-0.525-1.895c-0.181-0.644-0.312-1.291-0.473-1.952c-0.33-1.318-0.574-2.69-0.857-4.099
		c-0.13-0.705-0.236-1.423-0.349-2.15c-0.115-0.727-0.23-1.464-0.306-2.214c-0.087-0.75-0.175-1.508-0.264-2.275
		c-0.062-0.77-0.124-1.548-0.187-2.335c-0.484-6.299-0.182-13.209,1.003-20.419c0.175-0.896,0.352-1.798,0.529-2.708
		c0.092-0.454,0.184-0.909,0.277-1.366c0.104-0.455,0.226-0.906,0.339-1.361c0.231-0.912,0.463-1.827,0.697-2.749
		c0.261-0.915,0.554-1.825,0.834-2.746c0.523-1.856,1.257-3.662,1.932-5.51l0.129-0.346l0.155-0.378l0.273-0.655
		c0.182-0.436,0.365-0.873,0.547-1.313c0.379-0.884,0.693-1.737,1.169-2.677c0.443-0.923,0.889-1.85,1.337-2.779l0.337-0.699
		l0.363-0.667c0.245-0.443,0.491-0.887,0.737-1.333c0.503-0.883,0.968-1.796,1.51-2.664c0.543-0.868,1.087-1.739,1.633-2.614
		c0.277-0.433,0.538-0.881,0.832-1.306l0.888-1.272c0.595-0.851,1.19-1.703,1.788-2.556c0.63-0.83,1.287-1.643,1.933-2.467
		c0.652-0.82,1.284-1.66,1.995-2.435c1.392-1.575,2.753-3.196,4.268-4.679c0.742-0.756,1.478-1.522,2.232-2.27
		c0.787-0.715,1.574-1.43,2.363-2.147c1.545-1.47,3.25-2.76,4.9-4.12c0.815-0.692,1.7-1.296,2.563-1.926l2.603-1.879
		c7.1-4.785,14.844-8.611,22.813-11.289c0.998-0.329,1.994-0.657,2.988-0.984l0.745-0.244l0.746-0.217l1.439-0.415l0.727-0.202
		l0.773-0.194l1.542-0.386c1.029-0.261,2.026-0.451,3.035-0.678c4.029-0.832,8.053-1.414,12.029-1.711
		c7.949-0.624,15.688-0.256,22.874,0.934c3.591,0.613,7.048,1.396,10.334,2.346c3.279,0.978,6.385,2.103,9.303,3.324
		c5.806,2.523,10.835,5.429,14.962,8.424c4.129,2.996,7.423,5.966,9.935,8.582c2.516,2.613,4.293,4.828,5.474,6.35
		c1.145,1.549,1.756,2.375,1.756,2.375s-0.74-0.709-2.129-2.038c-0.172-0.165-0.354-0.341-0.547-0.526
		c-0.2-0.177-0.41-0.364-0.63-0.56c-0.439-0.389-0.919-0.816-1.437-1.275c-0.507-0.47-1.095-0.929-1.708-1.432
		c-0.617-0.497-1.244-1.054-1.955-1.586c-2.79-2.188-6.324-4.642-10.579-7.039c-1.071-0.588-2.188-1.172-3.332-1.773
		c-0.583-0.279-1.175-0.563-1.775-0.851c-0.299-0.143-0.6-0.288-0.903-0.434c-0.309-0.133-0.619-0.269-0.932-0.404
		c-0.625-0.27-1.258-0.543-1.899-0.821c-0.644-0.269-1.307-0.514-1.97-0.775c-1.319-0.543-2.718-0.976-4.119-1.47
		c-2.84-0.893-5.821-1.73-8.952-2.386c-3.134-0.64-6.395-1.17-9.769-1.501c-6.744-0.683-13.924-0.618-21.236,0.257
		c-3.653,0.457-7.344,1.091-11.017,1.975c-0.908,0.236-1.852,0.447-2.738,0.703L101.48,46l-0.67,0.188l-0.707,0.221l-1.431,0.443
		l-0.691,0.215l-0.678,0.239c-0.904,0.318-1.809,0.635-2.718,0.955c-7.226,2.626-14.261,6.119-20.704,10.514
		c-6.452,4.38-12.315,9.609-17.439,15.336c-0.666,0.695-1.254,1.454-1.864,2.19c-0.608,0.74-1.214,1.479-1.819,2.215
		c-0.57,0.763-1.138,1.525-1.705,2.284l-0.851,1.137c-0.282,0.379-0.53,0.782-0.796,1.171c-0.525,0.782-1.048,1.563-1.569,2.341
		c-0.523,0.778-0.968,1.598-1.455,2.391c-0.24,0.398-0.478,0.796-0.716,1.194l-0.36,0.594l-0.319,0.595
		c-0.427,0.793-0.853,1.583-1.277,2.37c-0.435,0.748-0.827,1.672-1.234,2.518c-0.202,0.43-0.404,0.859-0.605,1.288l-0.301,0.641
		l-0.075,0.16l-0.038,0.08c0.029-0.07-0.011,0.026-0.013,0.03l-0.131,0.311c-0.351,0.829-0.7,1.653-1.048,2.474
		c-0.171,0.411-0.367,0.813-0.515,1.231c-0.154,0.417-0.307,0.832-0.46,1.245c-0.303,0.829-0.621,1.65-0.909,2.476
		c-0.263,0.834-0.523,1.663-0.782,2.488c-0.128,0.413-0.265,0.823-0.384,1.235c-0.109,0.417-0.217,0.831-0.325,1.245
		c-0.221,0.827-0.439,1.649-0.658,2.464c-0.18,0.826-0.359,1.647-0.537,2.461c-0.088,0.407-0.176,0.815-0.265,1.219
		c-0.07,0.408-0.139,0.816-0.208,1.221c-0.139,0.812-0.276,1.619-0.413,2.418c-0.105,0.805-0.21,1.604-0.313,2.396
		c-0.052,0.396-0.104,0.791-0.156,1.185c-0.035,0.395-0.07,0.788-0.105,1.179c-0.069,0.785-0.138,1.562-0.206,2.334
		c-0.037,0.772-0.075,1.537-0.112,2.296c-0.018,0.379-0.036,0.757-0.054,1.133c-0.006,0.376-0.011,0.75-0.017,1.123
		c-0.098,2.984,0.07,5.845,0.24,8.57c0.216,2.717,0.549,5.31,0.942,7.68c0.831,4.869,1.976,8.961,3.194,12.287
		c1.219,3.314,2.468,5.825,3.365,7.523c0.448,0.85,0.779,1.517,0.957,1.989c0.085,0.238,0.136,0.423,0.142,0.555
		C42.695,170.175,42.677,170.238,42.682,170.238z"/>
	<path fill="#EAA4E8" d="M48.406,176.904c0,0,0.004-0.269-0.257-0.689c-0.247-0.424-0.694-1.005-1.262-1.781
		c-1.135-1.546-2.835-3.848-4.536-7.073c-0.86-1.605-1.72-3.437-2.546-5.478c-0.416-1.02-0.823-2.093-1.205-3.219
		c-0.097-0.29-0.193-0.545-0.293-0.871c-0.09-0.284-0.181-0.568-0.272-0.856c-0.178-0.583-0.378-1.146-0.547-1.772
		c-0.172-0.621-0.347-1.253-0.525-1.894c-0.181-0.644-0.311-1.29-0.472-1.951c-0.331-1.319-0.575-2.692-0.858-4.099
		c-0.13-0.705-0.236-1.423-0.35-2.151c-0.114-0.727-0.229-1.463-0.306-2.213c-0.087-0.75-0.175-1.509-0.264-2.275
		c-0.062-0.77-0.124-1.548-0.187-2.335c-0.484-6.299-0.183-13.208,1.003-20.418c0.175-0.897,0.351-1.799,0.529-2.708
		c0.092-0.455,0.185-0.909,0.277-1.367c0.103-0.455,0.226-0.906,0.338-1.362c0.231-0.91,0.464-1.827,0.698-2.748
		c0.261-0.914,0.554-1.825,0.834-2.747c0.523-1.855,1.258-3.66,1.932-5.509l0.129-0.346l0.156-0.379l0.273-0.654
		c0.182-0.436,0.364-0.873,0.547-1.313c0.38-0.884,0.693-1.737,1.168-2.677c0.444-0.924,0.89-1.85,1.337-2.78l0.338-0.699
		l0.363-0.666c0.245-0.443,0.491-0.888,0.737-1.333c0.503-0.883,0.968-1.795,1.51-2.664c0.542-0.869,1.086-1.739,1.632-2.614
		c0.278-0.434,0.538-0.881,0.832-1.306l0.888-1.272c0.595-0.85,1.191-1.702,1.788-2.557c0.63-0.83,1.288-1.64,1.934-2.466
		c0.652-0.819,1.284-1.659,1.995-2.434c1.392-1.577,2.753-3.197,4.267-4.68c0.743-0.755,1.478-1.521,2.232-2.271
		c0.787-0.714,1.574-1.429,2.363-2.147c1.546-1.469,3.25-2.76,4.9-4.119c0.815-0.693,1.7-1.296,2.564-1.927l2.603-1.878
		c7.1-4.786,14.844-8.611,22.813-11.289c0.998-0.329,1.994-0.657,2.988-0.984l0.745-0.244l0.746-0.216l1.439-0.417l0.727-0.201
		l0.773-0.195l1.542-0.386c1.029-0.262,2.026-0.451,3.035-0.679c4.029-0.832,8.053-1.413,12.029-1.711
		c7.949-0.624,15.688-0.256,22.875,0.935c3.591,0.613,7.048,1.396,10.333,2.346c3.279,0.977,6.386,2.104,9.303,3.325
		c5.806,2.523,10.836,5.429,14.962,8.424c4.128,2.995,7.423,5.966,9.935,8.581c2.517,2.613,4.293,4.829,5.474,6.351
		c1.146,1.547,1.757,2.375,1.757,2.375s-0.741-0.708-2.129-2.038c-0.172-0.166-0.354-0.342-0.546-0.528
		c-0.2-0.177-0.41-0.364-0.63-0.559c-0.439-0.391-0.919-0.817-1.437-1.276c-0.507-0.47-1.096-0.928-1.707-1.431
		c-0.617-0.497-1.245-1.054-1.956-1.587c-2.79-2.188-6.324-4.642-10.58-7.04c-1.071-0.587-2.188-1.171-3.332-1.771
		c-0.583-0.28-1.175-0.564-1.775-0.851c-0.299-0.144-0.6-0.288-0.904-0.433c-0.309-0.134-0.619-0.268-0.932-0.404
		c-0.624-0.27-1.258-0.544-1.898-0.821c-0.643-0.27-1.307-0.514-1.97-0.777c-1.318-0.543-2.717-0.975-4.118-1.47
		c-2.841-0.892-5.821-1.729-8.952-2.386c-3.134-0.639-6.395-1.168-9.769-1.5c-6.745-0.683-13.924-0.617-21.237,0.255
		c-3.654,0.458-7.344,1.092-11.017,1.977c-0.908,0.236-1.851,0.446-2.738,0.703l-1.338,0.379l-0.67,0.19l-0.707,0.22l-1.431,0.444
		l-0.691,0.215l-0.678,0.239c-0.904,0.317-1.81,0.635-2.718,0.954c-7.226,2.627-14.261,6.12-20.705,10.515
		c-6.453,4.38-12.315,9.61-17.439,15.337c-0.666,0.694-1.254,1.452-1.864,2.189c-0.608,0.74-1.214,1.478-1.818,2.214
		c-0.57,0.764-1.139,1.525-1.706,2.284l-0.851,1.138c-0.282,0.38-0.53,0.781-0.796,1.17c-0.524,0.784-1.048,1.564-1.569,2.343
		c-0.523,0.778-0.968,1.597-1.455,2.389c-0.239,0.399-0.478,0.797-0.716,1.196l-0.359,0.594l-0.319,0.595
		c-0.427,0.793-0.853,1.582-1.277,2.369c-0.434,0.75-0.827,1.674-1.234,2.518c-0.202,0.43-0.404,0.86-0.604,1.288l-0.302,0.642
		l-0.075,0.16l-0.037,0.081c0.029-0.07-0.011,0.024-0.013,0.03l-0.131,0.31c-0.352,0.828-0.701,1.653-1.048,2.474
		c-0.17,0.411-0.367,0.813-0.515,1.231c-0.154,0.415-0.307,0.831-0.461,1.244c-0.303,0.829-0.621,1.649-0.909,2.475
		c-0.262,0.835-0.523,1.663-0.782,2.489c-0.127,0.412-0.265,0.822-0.384,1.235c-0.109,0.415-0.217,0.831-0.325,1.243
		c-0.221,0.827-0.44,1.649-0.657,2.465c-0.18,0.826-0.36,1.646-0.538,2.46c-0.088,0.408-0.177,0.816-0.264,1.22
		c-0.07,0.408-0.14,0.816-0.209,1.221c-0.138,0.813-0.276,1.618-0.412,2.418c-0.105,0.805-0.209,1.603-0.313,2.395
		c-0.052,0.397-0.104,0.792-0.155,1.185c-0.035,0.396-0.07,0.789-0.105,1.18c-0.07,0.785-0.138,1.562-0.207,2.333
		c-0.037,0.772-0.075,1.539-0.111,2.296c-0.018,0.379-0.036,0.758-0.054,1.133c-0.005,0.376-0.011,0.751-0.016,1.124
		c-0.098,2.983,0.07,5.845,0.239,8.57c0.216,2.716,0.549,5.311,0.942,7.679c0.831,4.869,1.977,8.961,3.194,12.287
		c1.219,3.314,2.468,5.826,3.365,7.525c0.448,0.85,0.779,1.517,0.957,1.989c0.084,0.238,0.136,0.423,0.142,0.553
		C48.419,176.84,48.402,176.904,48.406,176.904z"/>
</g>
<g>
	<path fill="#805C3C" d="M70.212,104.962c0,0,8.342,5.959,1.192,15.493c-7.151,9.534-26.219,51.842,41.116,53.034
		c67.336,1.192,57.206-39.924,48.862-51.246c-8.341-11.322-7.346-16.69-4.963-19.074C158.803,100.786,111.925,76.955,70.212,104.962
		z"/>
	<g>
		<path fill="#AC6B0F" d="M109.392,108.995c-2.342-15.314,7.976-15.707,12.465-17.341c13.108-4.767,25.186-4.859,11.323,11.916
			c-3.344,4.046-14.926,8.789-20.168,7.717C111.071,110.891,109.574,110.189,109.392,108.995z"/>
		<path fill="#FED255" d="M109.392,105.022c-2.48-4.998,7.976-15.707,12.465-17.341c13.108-4.767,24.429,1.19,11.323,11.916
			c-4.062,3.325-14.926,8.79-20.168,7.717C111.071,106.918,109.929,106.104,109.392,105.022z"/>
	</g>
	<g>
		<path fill="#AC6B0F" d="M85.088,90.809c3.889-14.996,13.526-11.287,18.295-11.017c13.925,0.791,25.06,5.471,5.704,15.417
			c-4.669,2.399-17.183,2.188-21.577-0.865C85.884,93.213,84.785,91.978,85.088,90.809z"/>
		<path fill="#F4D89A" d="M86.656,87.158c-0.308-5.571,13.526-11.286,18.294-11.017c13.925,0.791,21.978,10.731,5.705,15.417
			c-5.044,1.452-17.183,2.188-21.578-0.866C87.451,89.563,86.722,88.364,86.656,87.158z"/>
	</g>
	<g>
		<path fill="#AC6B0F" d="M69.266,109.393c-2.342-15.314,7.977-15.707,12.464-17.341c13.109-4.766,25.186-4.859,11.324,11.916
			c-3.344,4.046-14.926,8.79-20.169,7.717C70.946,111.288,69.449,110.586,69.266,109.393z"/>
		<path fill="#FED255" d="M69.266,105.42c-2.48-4.998,7.977-15.707,12.464-17.341c13.109-4.766,24.429,1.191,11.324,11.916
			c-4.062,3.325-14.926,8.79-20.169,7.717C70.946,107.315,69.803,106.501,69.266,105.42z"/>
	</g>
	<g>
		<path fill="#AC6B0F" d="M103.18,95.139c-1.169-1.499-2.435-3.936-4.408-5.891v0.989h-9.137v-3.922
			c-1.942,0.278-4.184,0.995-6.791,2.302c-1.079,0.541-1.287,2.182-1.067,4.149c0.594,5.318,8.672,14.878,13.551,16.814
			C115.556,117.606,111.751,106.143,103.18,95.139z"/>
		<path fill="#EFC04B" d="M86.624,87.395c3.992-3.898,17.4,2.754,20.336,6.521c8.57,11.005,6.388,23.609-7.852,14.442
			c-4.413-2.841-12.957-11.496-13.551-16.814C85.337,89.576,85.761,88.239,86.624,87.395z"/>
	</g>
	<g>
		<path fill="#AC6B0F" d="M127.737,86.632c13.849-6.942,17.4,2.754,20.336,6.522c8.571,11.004,12.376,22.466-7.852,14.442
			c-4.879-1.936-12.957-11.496-13.55-16.814C126.45,88.813,126.657,87.173,127.737,86.632z"/>
		<path fill="#EFC04B" d="M131.517,85.409c3.991-3.897,17.399,2.754,20.336,6.521c8.571,11.004,6.388,23.609-7.852,14.441
			c-4.414-2.84-12.957-11.495-13.551-16.813C130.231,87.59,130.653,86.252,131.517,85.409z"/>
	</g>
	<g>
		<path fill="#AC6B0F" d="M108.249,81.36c-1.606,0.61-3.967,1.074-6.214,2.125h0.115v8.939h-6.408
			c-0.198,1.796-0.134,3.918,0.291,6.453c0.2,1.191,1.706,1.872,3.652,2.24c5.257,0.997,16.771-3.91,20.057-8.004
			C133.362,76.142,121.287,76.406,108.249,81.36z"/>
		<path fill="#FED255" d="M95.976,94.904c-2.551-4.961,7.752-15.819,12.216-17.517c13.04-4.953,24.444,0.842,11.492,11.754
			c-4.014,3.383-14.799,9.001-20.056,8.004C97.682,96.776,96.528,95.977,95.976,94.904z"/>
	</g>
	<path fill="#684529" d="M74.187,115.088c0,0,0.314,0.141,0.902,0.405c0.583,0.268,1.457,0.625,2.557,1.078
		c1.099,0.455,2.449,0.968,3.988,1.545c0.783,0.262,1.589,0.589,2.467,0.867c0.434,0.149,0.879,0.3,1.336,0.456
		c0.459,0.145,0.928,0.293,1.408,0.444c0.952,0.316,1.961,0.592,2.991,0.905c1.048,0.263,2.103,0.607,3.22,0.856
		c0.556,0.132,1.115,0.273,1.68,0.419c0.57,0.125,1.148,0.251,1.731,0.379c0.292,0.064,0.584,0.128,0.879,0.193
		c0.296,0.057,0.593,0.114,0.891,0.171c0.596,0.116,1.198,0.232,1.804,0.35c2.439,0.393,4.953,0.789,7.523,0.993
		c2.566,0.249,5.178,0.331,7.787,0.337c2.606-0.043,5.213-0.168,7.762-0.466c0.638-0.074,1.273-0.15,1.906-0.224
		c0.632-0.072,1.253-0.197,1.876-0.291c0.623-0.101,1.241-0.201,1.856-0.301c0.609-0.129,1.214-0.258,1.814-0.385
		c0.602-0.126,1.199-0.251,1.79-0.374c0.581-0.16,1.16-0.315,1.735-0.46c0.575-0.149,1.144-0.296,1.706-0.441
		c0.56-0.153,1.099-0.351,1.644-0.51c2.185-0.627,4.188-1.42,6.079-2.09c0.926-0.385,1.813-0.755,2.657-1.107
		c0.426-0.173,0.842-0.342,1.245-0.506c0.399-0.175,0.774-0.368,1.149-0.536c0.746-0.344,1.441-0.677,2.096-0.969
		c0.327-0.148,0.64-0.29,0.941-0.425c0.291-0.151,0.57-0.294,0.834-0.43c1.055-0.548,1.912-0.952,2.487-1.241
		c0.586-0.279,0.897-0.428,0.897-0.428s-0.242,0.245-0.708,0.689c-0.471,0.439-1.151,1.103-2.05,1.915
		c-0.225,0.204-0.461,0.418-0.71,0.643c-0.261,0.208-0.535,0.425-0.819,0.652c-0.568,0.457-1.197,0.934-1.866,1.455
		c-0.335,0.259-0.679,0.531-1.047,0.79c-0.374,0.25-0.758,0.507-1.153,0.771c-0.793,0.525-1.634,1.071-2.518,1.637
		c-0.917,0.51-1.872,1.04-2.861,1.589c-0.249,0.136-0.5,0.273-0.753,0.411c-0.257,0.131-0.523,0.246-0.788,0.371
		c-0.532,0.246-1.072,0.497-1.62,0.751c-0.549,0.25-1.103,0.518-1.68,0.746c-0.58,0.22-1.167,0.443-1.762,0.668
		c-0.595,0.228-1.198,0.452-1.81,0.673c-0.623,0.187-1.252,0.377-1.885,0.567c-0.635,0.188-1.274,0.39-1.923,0.568
		c-0.657,0.149-1.319,0.298-1.984,0.45c-0.668,0.144-1.335,0.318-2.015,0.438c-0.683,0.107-1.369,0.214-2.058,0.322
		c-1.375,0.244-2.778,0.355-4.185,0.481c-0.703,0.077-1.41,0.094-2.118,0.12l-2.124,0.075c-0.708-0.006-1.416-0.032-2.123-0.047
		c-0.707-0.024-1.415-0.02-2.116-0.085c-1.406-0.099-2.806-0.21-4.181-0.411c-0.689-0.096-1.378-0.166-2.056-0.284
		c-0.676-0.126-1.349-0.252-2.018-0.377c-0.67-0.116-1.328-0.267-1.981-0.419c-0.653-0.15-1.299-0.309-1.938-0.468
		c-0.634-0.18-1.262-0.357-1.885-0.533c-0.31-0.089-0.619-0.178-0.927-0.266c-0.304-0.101-0.605-0.203-0.905-0.303
		c-0.599-0.202-1.192-0.401-1.778-0.597c-0.579-0.215-1.15-0.429-1.709-0.649c-0.28-0.109-0.558-0.217-0.834-0.324
		c-0.273-0.115-0.543-0.23-0.812-0.344c-0.535-0.23-1.062-0.457-1.581-0.679c-0.509-0.243-1.01-0.48-1.502-0.714
		c-0.492-0.229-0.972-0.461-1.431-0.712c-1.863-0.942-3.503-1.932-4.935-2.825c-1.419-0.923-2.628-1.757-3.586-2.501
		c-0.967-0.728-1.684-1.356-2.174-1.779c-0.245-0.21-0.424-0.384-0.546-0.498C74.25,115.148,74.187,115.088,74.187,115.088z"/>
	<path fill="#F7F1EB" d="M116.893,76.951c0,0,0.334-0.054,0.923-0.025c0.585,0.038,1.431,0.146,2.413,0.61
		c0.489,0.233,1.013,0.574,1.489,1.101c0.473,0.52,0.877,1.279,0.98,2.125c0.114,0.843-0.045,1.695-0.331,2.424
		c-0.296,0.713-0.688,1.37-1.128,1.921l-0.336,0.416l-0.354,0.379c-0.118,0.126-0.236,0.252-0.358,0.372l-0.374,0.335
		c-0.488,0.46-1.014,0.827-1.517,1.193c-0.517,0.333-1.018,0.657-1.514,0.915c-0.498,0.255-0.965,0.502-1.418,0.683
		c-0.451,0.186-0.868,0.347-1.242,0.478c-0.379,0.123-0.714,0.218-0.993,0.29c-0.558,0.143-0.889,0.197-0.889,0.197
		s0.202-0.274,0.574-0.707c0.187-0.217,0.418-0.469,0.686-0.751c0.261-0.29,0.561-0.605,0.892-0.938
		c0.338-0.325,0.677-0.7,1.059-1.063c0.382-0.363,0.755-0.766,1.165-1.15c0.189-0.206,0.39-0.403,0.59-0.604
		c0.206-0.199,0.387-0.413,0.586-0.616l0.293-0.31c0.087-0.109,0.179-0.213,0.271-0.317l0.278-0.312l0.244-0.321
		c0.356-0.415,0.601-0.846,0.834-1.243c0.195-0.403,0.313-0.762,0.35-1.091c0.033-0.327-0.014-0.655-0.168-1.004
		c-0.152-0.347-0.393-0.698-0.672-1.003c-0.555-0.621-1.175-1.11-1.613-1.449c-0.222-0.166-0.4-0.31-0.527-0.395
		C116.96,77,116.893,76.951,116.893,76.951z"/>
	<path fill="#F7F1EB" d="M154.499,101.053c0,0,0.082,0.328,0.101,0.917c0.011,0.587-0.027,1.439-0.408,2.456
		c-0.192,0.506-0.488,1.056-0.974,1.575c-0.479,0.514-1.202,0.98-2.037,1.153c-0.83,0.183-1.692,0.094-2.443-0.129
		c-0.735-0.237-1.422-0.572-2.009-0.966l-0.442-0.301l-0.408-0.322c-0.135-0.106-0.27-0.213-0.401-0.325l-0.364-0.345
		c-0.499-0.449-0.908-0.943-1.314-1.413c-0.376-0.488-0.738-0.961-1.037-1.434c-0.295-0.476-0.58-0.92-0.798-1.357
		c-0.223-0.434-0.417-0.836-0.58-1.198c-0.153-0.367-0.276-0.693-0.371-0.965c-0.188-0.545-0.271-0.87-0.271-0.87
		s0.29,0.178,0.753,0.513c0.232,0.168,0.502,0.378,0.805,0.621c0.31,0.237,0.649,0.51,1.008,0.812
		c0.353,0.309,0.753,0.617,1.147,0.967c0.393,0.351,0.826,0.689,1.242,1.066c0.221,0.171,0.434,0.355,0.651,0.538
		c0.215,0.189,0.444,0.351,0.662,0.533l0.333,0.266c0.116,0.078,0.226,0.161,0.338,0.244l0.334,0.251l0.34,0.217
		c0.444,0.32,0.894,0.529,1.309,0.728c0.418,0.161,0.785,0.25,1.116,0.258c0.329,0.005,0.651-0.068,0.987-0.251
		c0.333-0.18,0.663-0.45,0.944-0.753c0.574-0.604,1.009-1.263,1.31-1.727c0.147-0.235,0.276-0.424,0.35-0.557
		C154.456,101.124,154.499,101.053,154.499,101.053z"/>
	<path fill="#F7F1EB" d="M110.34,102.943c0,0,0.108,0.321,0.176,0.906c0.059,0.584,0.09,1.436-0.208,2.481
		c-0.15,0.52-0.4,1.093-0.842,1.649c-0.436,0.552-1.118,1.074-1.937,1.315c-0.813,0.25-1.68,0.232-2.446,0.07
		c-0.751-0.176-1.463-0.455-2.08-0.799l-0.465-0.264l-0.432-0.287c-0.144-0.095-0.287-0.191-0.426-0.292l-0.391-0.314
		c-0.534-0.406-0.982-0.866-1.424-1.301c-0.414-0.455-0.814-0.897-1.15-1.344c-0.333-0.45-0.653-0.87-0.906-1.287
		c-0.257-0.415-0.483-0.8-0.675-1.147c-0.183-0.354-0.331-0.669-0.448-0.932c-0.232-0.528-0.34-0.845-0.34-0.845
		s0.303,0.154,0.792,0.45c0.244,0.148,0.53,0.336,0.853,0.554c0.329,0.211,0.689,0.455,1.071,0.727
		c0.376,0.28,0.801,0.554,1.222,0.871c0.421,0.317,0.879,0.619,1.325,0.961c0.234,0.153,0.461,0.319,0.693,0.484
		c0.23,0.171,0.471,0.314,0.703,0.478l0.353,0.238c0.121,0.068,0.239,0.142,0.357,0.216l0.354,0.222l0.356,0.189
		c0.468,0.282,0.934,0.454,1.363,0.619c0.43,0.126,0.803,0.184,1.133,0.166c0.328-0.021,0.644-0.121,0.964-0.33
		c0.317-0.207,0.624-0.502,0.88-0.827c0.522-0.649,0.902-1.34,1.165-1.828c0.127-0.247,0.24-0.445,0.304-0.584
		C110.302,103.017,110.34,102.943,110.34,102.943z"/>
	<path fill="#A88160" d="M71.295,132.085c0,0,0,0.16-0.001,0.458c-0.005,0.298,0.014,0.735,0.024,1.284
		c0.009,0.55,0.058,1.217,0.099,1.973c0.06,0.759,0.118,1.607,0.232,2.526c0.102,0.919,0.24,1.907,0.425,2.938
		c0.167,1.036,0.421,2.107,0.681,3.208c0.3,1.092,0.606,2.217,1.012,3.325c0.387,1.114,0.847,2.217,1.354,3.296
		c0.517,1.074,1.073,2.13,1.695,3.125c0.154,0.25,0.308,0.498,0.462,0.747c0.164,0.24,0.328,0.48,0.49,0.717
		c0.165,0.236,0.318,0.481,0.491,0.707c0.173,0.228,0.344,0.453,0.514,0.677c0.172,0.222,0.33,0.454,0.51,0.665
		c0.181,0.21,0.358,0.42,0.531,0.63c0.175,0.209,0.347,0.417,0.517,0.622c0.182,0.196,0.362,0.388,0.539,0.579
		c0.688,0.787,1.419,1.457,2.069,2.113c0.343,0.31,0.672,0.608,0.985,0.89c0.156,0.144,0.308,0.284,0.456,0.421
		c0.155,0.128,0.305,0.252,0.452,0.372c0.589,0.476,1.075,0.946,1.521,1.265c0.439,0.331,0.773,0.617,1.008,0.802
		c0.231,0.193,0.354,0.295,0.354,0.295s-0.151-0.049-0.435-0.144c-0.281-0.101-0.701-0.235-1.224-0.438
		c-0.534-0.184-1.143-0.483-1.856-0.814c-0.177-0.086-0.36-0.174-0.549-0.264c-0.182-0.102-0.369-0.207-0.561-0.314
		c-0.383-0.222-0.786-0.455-1.206-0.698c-0.804-0.542-1.697-1.118-2.553-1.846c-0.218-0.178-0.438-0.359-0.661-0.542
		c-0.211-0.197-0.425-0.396-0.641-0.597c-0.438-0.399-0.869-0.825-1.278-1.287c-0.208-0.228-0.418-0.458-0.629-0.691
		c-0.207-0.236-0.395-0.49-0.595-0.738c-0.197-0.25-0.396-0.502-0.596-0.754c-0.181-0.266-0.363-0.534-0.546-0.803
		c-0.749-1.066-1.373-2.236-1.96-3.42c-0.272-0.602-0.533-1.209-0.775-1.82c-0.226-0.617-0.455-1.231-0.63-1.855
		c-0.091-0.311-0.189-0.618-0.272-0.928c-0.074-0.312-0.147-0.623-0.219-0.932c-0.157-0.614-0.248-1.233-0.359-1.837
		c-0.174-1.215-0.299-2.392-0.321-3.511c-0.025-0.558-0.01-1.102-0.006-1.626c0.03-0.524,0.036-1.029,0.087-1.513
		c0.157-1.934,0.498-3.514,0.804-4.594c0.142-0.543,0.296-0.959,0.395-1.242C71.227,132.231,71.295,132.085,71.295,132.085z"/>
	<path fill="#5A351A" d="M72.929,112.38c2.136,8.08,7.049,16.46,13.2,22.056c17.472,15.895,55.182,6.322,67.847-12.106
		c2.04-2.967,3.352-6.482,4.19-9.973c-0.76,3.167-0.108,6.6-1.195,9.961c-2.56,7.913-8.192,14.604-15.224,18.956
		c-14.266,8.83-37.388,9.472-53.045,4.059c-7.247-2.505-13.542-8.461-16.326-15.626c-1.418-3.648-1.393-7.354-0.878-11.188
		C71.675,117.21,73.243,113.567,72.929,112.38z"/>
	<path fill="#5A351A" d="M78.313,116.657c0-2.524-2.046-4.569-4.569-4.569c-2.523,0-4.569,2.045-4.569,4.569
		c0,2.523,2.045,4.569,4.569,4.569C76.267,121.226,78.313,119.181,78.313,116.657z"/>
	<path fill="#5A351A" d="M161.345,116.657c0-2.524-2.045-4.569-4.569-4.569c-2.523,0-4.569,2.045-4.569,4.569
		c0,2.523,2.046,4.569,4.569,4.569C159.299,121.226,161.345,119.181,161.345,116.657z"/>
	<path fill="#805C3C" d="M158.961,116.657c0-1.207-0.978-2.186-2.185-2.186c-1.207,0-2.185,0.979-2.185,2.186
		c0,1.207,0.979,2.185,2.185,2.185C157.983,118.843,158.961,117.864,158.961,116.657z"/>
	<path fill="#805C3C" d="M75.929,116.657c0-1.207-0.978-2.186-2.185-2.186c-1.207,0-2.185,0.979-2.185,2.186
		c0,1.207,0.978,2.185,2.185,2.185C74.951,118.843,75.929,117.864,75.929,116.657z"/>
</g>
<g>
</g>
<g>
</g>
<g>
</g>
<g>
</g>
<g>
</g>
</svg>
