<?xml version="1.0" encoding="utf-8"?>
<!-- Generator: Adobe Illustrator 24.1.0, SVG Export Plug-In . SVG Version: 6.00 Build 0)  -->
<svg version="1.1" id="Layer_1" xmlns="http://www.w3.org/2000/svg" xmlns:xlink="http://www.w3.org/1999/xlink" x="0px" y="0px"
	 viewBox="0 0 200 200" enable-background="new 0 0 200 200" xml:space="preserve">
<g>
	<path fill="#56921E" d="M146.518,103.3c-16.401,21.528-40.208,35.846-42.88,65.543c2.809,0.75,5.227,1.453,7.98,1.019
		C112.906,144.903,132.111,122.211,146.518,103.3z"/>
	<path fill="#56921E" d="M55.797,138.817c1.941,19.518-3.607,38.871,9.649,55.937c1.86-0.99,3.489-1.812,4.734-3.402
		C58.531,177.482,57.502,155.962,55.797,138.817z"/>
	<g>
		<path fill="#59A13B" d="M143.594,110.298c-0.043,0.035-20.296-29.702-21.214-32.814c-4.648-15.77,18.791-25.943,22.586-7.007
			c-2.36-11.78,27.721-17.538,21.113,3.552C162.018,86.989,151.983,99.747,143.594,110.298z"/>
		<path fill="#56921E" d="M135.833,74.776c0.648,1.301,1.233,2.629,1.803,3.964c0.573,1.335,1.1,2.686,1.627,4.039
			c0.516,1.357,0.992,2.729,1.476,4.1c0.236,0.688,0.455,1.381,0.676,2.073c0.227,0.691,0.423,1.392,0.637,2.088
			c0.213,0.696,0.419,1.395,0.608,2.1c0.19,0.705,0.382,1.408,0.557,2.117l0.503,2.136c0.167,0.712,0.291,1.437,0.439,2.156
			l0.209,1.082l0.164,1.095c0.099,0.733,0.241,1.454,0.298,2.199c0.066,0.742,0.149,1.48,0.192,2.228l0.059,2.263l-2.845,0.062
			c-0.039-0.768-0.054-1.484-0.062-2.222c-0.005-0.732-0.007-1.464,0.011-2.195c0.017-0.731,0.046-1.461,0.084-2.191
			c0.038-0.73,0.079-1.459,0.147-2.187c0.059-0.728,0.135-1.456,0.216-2.183c0.079-0.727,0.183-1.452,0.291-2.176
			c0.117-0.723,0.225-1.447,0.371-2.166c0.136-0.72,0.304-1.436,0.465-2.151c0.179-0.713,0.351-1.425,0.559-2.132
			c0.191-0.709,0.421-1.41,0.662-2.105c0.251-0.693,0.509-1.382,0.801-2.06c0.135-0.342,0.292-0.677,0.448-1.011
			c0.158-0.333,0.3-0.672,0.484-0.995c0.178-0.324,0.347-0.651,0.531-0.971l0.577-0.945c0.412-0.613,0.814-1.23,1.298-1.788
			c0.228-0.288,0.466-0.568,0.726-0.83c0.258-0.262,0.49-0.544,0.774-0.779c0.279-0.238,0.54-0.492,0.831-0.711l0.881-0.637
			l-0.728,0.798c-0.238,0.266-0.444,0.562-0.666,0.839c-0.229,0.27-0.412,0.579-0.614,0.869c-0.205,0.288-0.387,0.591-0.558,0.901
			c-0.361,0.605-0.673,1.239-0.98,1.87l-0.422,0.966c-0.133,0.325-0.25,0.658-0.376,0.985c-0.243,0.658-0.475,1.321-0.673,1.995
			c-0.207,0.671-0.382,1.352-0.55,2.034c-0.15,0.688-0.324,1.367-0.454,2.06c-0.146,0.688-0.258,1.384-0.376,2.077
			c-0.211,1.394-0.379,2.794-0.524,4.197c-0.133,1.405-0.238,2.814-0.303,4.226c-0.066,1.412-0.112,2.825-0.112,4.238
			c-0.005,0.706-0.003,1.412,0.009,2.117c0.012,0.699,0.035,1.42,0.073,2.087l-2.845,0.063l-0.038-2.068
			c-0.032-0.693-0.112-1.393-0.16-2.09c-0.035-0.697-0.157-1.399-0.235-2.099l-0.132-1.051l-0.167-1.051
			c-0.116-0.701-0.208-1.404-0.343-2.105l-0.387-2.104l-0.427-2.102c-0.132-0.704-0.282-1.405-0.438-2.104
			c-0.157-0.699-0.297-1.403-0.469-2.101c-0.166-0.699-0.335-1.396-0.486-2.1l-0.499-2.1l-0.519-2.098
			c-0.329-1.405-0.695-2.8-1.042-4.204L135.833,74.776z"/>
		<path fill="#9DC985" d="M149.157,68.431c0,0,0.015-0.082,0.059-0.228c0.048-0.142,0.106-0.364,0.22-0.618
			c0.21-0.525,0.569-1.244,1.146-2.02c0.572-0.778,1.371-1.611,2.444-2.319c0.274-0.172,0.553-0.345,0.865-0.488l0.469-0.219
			l0.503-0.179c0.686-0.22,1.437-0.37,2.223-0.35c0.776,0.029,1.578,0.163,2.277,0.484c0.719,0.28,1.313,0.725,1.833,1.167
			c0.234,0.243,0.473,0.471,0.678,0.715c0.187,0.253,0.373,0.495,0.538,0.738c0.295,0.502,0.561,0.974,0.725,1.437
			c0.084,0.231,0.175,0.445,0.238,0.657c0.055,0.216,0.112,0.415,0.154,0.607c0.041,0.192,0.087,0.367,0.114,0.535
			c0.02,0.17,0.038,0.325,0.054,0.465c0.037,0.276,0.037,0.504,0.048,0.652c0.002,0.152,0.004,0.233,0.004,0.233
			s-0.064-0.052-0.182-0.15c-0.11-0.102-0.289-0.241-0.478-0.431c-0.189-0.192-0.437-0.409-0.709-0.653
			c-0.263-0.251-0.554-0.527-0.881-0.801c-0.306-0.295-0.668-0.557-1.014-0.846c-0.188-0.124-0.365-0.26-0.549-0.393
			c-0.196-0.109-0.38-0.23-0.568-0.347c-0.202-0.079-0.384-0.2-0.58-0.277c-0.199-0.063-0.385-0.16-0.581-0.202
			c-0.385-0.119-0.775-0.168-1.18-0.174c-0.403-0.033-0.831,0.049-1.271,0.121c-0.439,0.085-0.891,0.234-1.341,0.383
			c-0.896,0.33-1.776,0.74-2.547,1.128c-0.799,0.405-1.465,0.743-1.931,0.98C149.456,68.289,149.157,68.431,149.157,68.431z"/>
	</g>
	<g>
		<path fill="#59A13B" d="M145.209,108.135c0.043-0.036,20.296,29.701,21.213,32.813c4.648,15.77-18.791,25.943-22.585,7.007
			c2.36,11.781-27.721,17.538-21.113-3.552C126.784,131.444,136.82,118.686,145.209,108.135z"/>
		<path fill="#56921E" d="M152.969,143.657c-0.647-1.301-1.233-2.629-1.803-3.964c-0.573-1.334-1.1-2.686-1.627-4.04
			c-0.516-1.357-0.992-2.729-1.476-4.1c-0.236-0.688-0.455-1.381-0.676-2.073c-0.227-0.691-0.423-1.392-0.637-2.088
			c-0.213-0.697-0.419-1.395-0.608-2.1c-0.19-0.704-0.382-1.408-0.557-2.117l-0.503-2.136c-0.167-0.712-0.291-1.437-0.439-2.157
			l-0.209-1.081l-0.164-1.095c-0.099-0.733-0.241-1.454-0.298-2.199c-0.066-0.743-0.149-1.479-0.192-2.228l-0.059-2.263l2.845-0.063
			c0.039,0.768,0.054,1.484,0.062,2.222c0.005,0.733,0.007,1.464-0.011,2.195c-0.017,0.731-0.046,1.461-0.084,2.191
			c-0.038,0.729-0.079,1.459-0.147,2.187c-0.059,0.728-0.135,1.456-0.216,2.183c-0.079,0.727-0.183,1.452-0.291,2.176
			c-0.117,0.723-0.226,1.447-0.371,2.167c-0.136,0.72-0.304,1.435-0.465,2.151c-0.179,0.713-0.351,1.426-0.558,2.132
			c-0.191,0.709-0.421,1.41-0.662,2.105c-0.251,0.693-0.509,1.382-0.801,2.06c-0.135,0.342-0.292,0.677-0.448,1.011
			c-0.159,0.333-0.301,0.672-0.484,0.994c-0.178,0.324-0.347,0.651-0.531,0.971l-0.577,0.945c-0.412,0.613-0.813,1.23-1.298,1.789
			c-0.228,0.288-0.466,0.568-0.725,0.829c-0.258,0.263-0.49,0.544-0.774,0.779c-0.28,0.238-0.541,0.491-0.831,0.711l-0.881,0.637
			l0.728-0.798c0.239-0.266,0.444-0.562,0.666-0.839c0.23-0.269,0.412-0.579,0.614-0.868c0.205-0.288,0.387-0.591,0.558-0.902
			c0.361-0.605,0.673-1.239,0.98-1.87l0.422-0.966c0.133-0.325,0.25-0.658,0.376-0.985c0.243-0.658,0.476-1.321,0.673-1.995
			c0.207-0.671,0.382-1.352,0.55-2.034c0.15-0.688,0.324-1.367,0.454-2.06c0.146-0.687,0.258-1.384,0.376-2.077
			c0.211-1.394,0.379-2.794,0.524-4.197c0.133-1.405,0.238-2.814,0.303-4.226c0.066-1.412,0.112-2.825,0.113-4.238
			c0.005-0.706,0.002-1.413-0.01-2.117c-0.012-0.7-0.035-1.42-0.073-2.087l2.845-0.063l0.039,2.068
			c0.032,0.693,0.112,1.393,0.16,2.09c0.035,0.697,0.157,1.399,0.235,2.099l0.132,1.051l0.167,1.051
			c0.116,0.701,0.208,1.405,0.343,2.105l0.387,2.104l0.427,2.102c0.132,0.703,0.282,1.404,0.438,2.104
			c0.157,0.7,0.297,1.403,0.468,2.1c0.166,0.699,0.335,1.397,0.486,2.1l0.499,2.1l0.519,2.098c0.329,1.405,0.695,2.801,1.042,4.204
			L152.969,143.657z"/>
		<path fill="#9DC985" d="M139.645,150.001c0,0-0.015,0.082-0.059,0.228c-0.048,0.142-0.106,0.365-0.22,0.618
			c-0.21,0.525-0.569,1.243-1.146,2.02c-0.572,0.778-1.37,1.611-2.444,2.319c-0.274,0.172-0.553,0.345-0.865,0.488l-0.469,0.22
			l-0.503,0.179c-0.686,0.22-1.437,0.37-2.223,0.35c-0.776-0.029-1.578-0.163-2.277-0.484c-0.719-0.28-1.313-0.725-1.832-1.167
			c-0.234-0.243-0.473-0.471-0.679-0.715c-0.187-0.253-0.373-0.494-0.538-0.738c-0.296-0.502-0.561-0.975-0.725-1.437
			c-0.084-0.231-0.175-0.445-0.239-0.657c-0.055-0.215-0.112-0.415-0.154-0.607c-0.041-0.192-0.087-0.367-0.114-0.535
			c-0.02-0.17-0.038-0.325-0.054-0.465c-0.037-0.276-0.037-0.504-0.048-0.652c-0.002-0.152-0.004-0.233-0.004-0.233
			s0.063,0.052,0.182,0.151c0.11,0.101,0.289,0.241,0.478,0.431c0.189,0.192,0.437,0.409,0.709,0.653
			c0.263,0.251,0.554,0.527,0.881,0.801c0.305,0.295,0.668,0.557,1.014,0.846c0.188,0.124,0.366,0.26,0.55,0.392
			c0.196,0.11,0.379,0.23,0.568,0.347c0.202,0.08,0.384,0.2,0.579,0.276c0.199,0.063,0.385,0.16,0.581,0.202
			c0.385,0.119,0.775,0.169,1.18,0.174c0.403,0.033,0.831-0.049,1.271-0.121c0.44-0.085,0.891-0.234,1.341-0.383
			c0.896-0.33,1.777-0.74,2.546-1.128c0.799-0.405,1.465-0.743,1.931-0.98C139.347,150.144,139.645,150.001,139.645,150.001z"/>
	</g>
	<g>
		<path fill="#59A13B" d="M143.32,108.409c-0.036-0.043,29.701-20.296,32.813-21.213c15.77-4.648,25.943,18.791,7.007,22.586
			c11.78-2.36,17.537,27.721-3.553,21.113C166.629,126.833,153.871,116.798,143.32,108.409z"/>
		<path fill="#56921E" d="M178.842,100.648c-1.301,0.647-2.629,1.233-3.964,1.803c-1.335,0.573-2.686,1.099-4.04,1.627
			c-1.357,0.516-2.729,0.992-4.1,1.476c-0.688,0.236-1.381,0.455-2.073,0.676c-0.691,0.227-1.392,0.423-2.088,0.637
			c-0.697,0.213-1.396,0.418-2.1,0.608c-0.704,0.19-1.408,0.382-2.117,0.557l-2.136,0.503c-0.712,0.166-1.438,0.291-2.157,0.439
			l-1.082,0.209l-1.095,0.164c-0.733,0.1-1.454,0.242-2.199,0.298c-0.742,0.066-1.479,0.149-2.227,0.192l-2.263,0.059l-0.062-2.845
			c0.768-0.039,1.484-0.054,2.222-0.062c0.732-0.005,1.464-0.007,2.195,0.011c0.731,0.017,1.46,0.046,2.19,0.084
			c0.73,0.038,1.459,0.079,2.188,0.147c0.728,0.059,1.456,0.135,2.183,0.216c0.727,0.079,1.452,0.183,2.176,0.291
			c0.724,0.117,1.447,0.225,2.167,0.371c0.72,0.136,1.436,0.304,2.151,0.464c0.713,0.179,1.426,0.352,2.132,0.559
			c0.709,0.191,1.41,0.421,2.104,0.662c0.693,0.251,1.383,0.509,2.06,0.801c0.342,0.135,0.677,0.292,1.011,0.448
			c0.333,0.158,0.672,0.3,0.994,0.484c0.325,0.178,0.652,0.347,0.971,0.531l0.945,0.577c0.613,0.412,1.23,0.814,1.788,1.298
			c0.288,0.228,0.568,0.466,0.83,0.726c0.262,0.257,0.544,0.49,0.779,0.774c0.238,0.28,0.491,0.541,0.711,0.831l0.637,0.881
			l-0.798-0.728c-0.266-0.239-0.562-0.444-0.839-0.666c-0.27-0.229-0.58-0.412-0.869-0.614c-0.287-0.205-0.592-0.387-0.902-0.558
			c-0.605-0.361-1.239-0.673-1.869-0.98l-0.966-0.422c-0.325-0.132-0.658-0.25-0.986-0.375c-0.658-0.243-1.32-0.476-1.995-0.673
			c-0.671-0.207-1.352-0.382-2.034-0.55c-0.688-0.149-1.367-0.324-2.06-0.453c-0.687-0.146-1.384-0.258-2.077-0.376
			c-1.394-0.211-2.794-0.379-4.197-0.524c-1.405-0.133-2.814-0.238-4.226-0.303c-1.411-0.066-2.825-0.112-4.238-0.112
			c-0.706-0.005-1.412-0.003-2.117,0.009c-0.699,0.012-1.42,0.035-2.087,0.073l-0.063-2.845l2.069-0.038
			c0.693-0.032,1.392-0.112,2.09-0.16c0.697-0.035,1.399-0.157,2.099-0.235l1.051-0.132l1.051-0.167
			c0.701-0.116,1.405-0.208,2.105-0.344l2.104-0.387l2.102-0.427c0.703-0.132,1.404-0.282,2.104-0.438
			c0.7-0.157,1.404-0.297,2.101-0.469c0.698-0.166,1.396-0.335,2.1-0.486l2.1-0.499l2.098-0.518c1.405-0.329,2.8-0.695,4.204-1.042
			L178.842,100.648z"/>
		<path fill="#9DC985" d="M185.186,113.972c0,0,0.082,0.015,0.228,0.059c0.142,0.048,0.364,0.106,0.619,0.221
			c0.524,0.21,1.243,0.569,2.019,1.146c0.777,0.573,1.611,1.37,2.318,2.444c0.172,0.274,0.345,0.553,0.488,0.865l0.219,0.469
			l0.179,0.503c0.22,0.686,0.37,1.437,0.35,2.223c-0.029,0.776-0.163,1.577-0.483,2.276c-0.279,0.72-0.724,1.313-1.167,1.832
			c-0.243,0.235-0.471,0.474-0.715,0.679c-0.253,0.187-0.494,0.372-0.737,0.537c-0.502,0.295-0.975,0.56-1.437,0.725
			c-0.231,0.084-0.445,0.175-0.657,0.239c-0.216,0.055-0.415,0.112-0.607,0.154c-0.192,0.041-0.367,0.087-0.535,0.114
			c-0.169,0.019-0.325,0.038-0.465,0.054c-0.277,0.037-0.504,0.037-0.652,0.048c-0.152,0.002-0.233,0.004-0.233,0.004
			s0.052-0.063,0.151-0.182c0.101-0.11,0.24-0.289,0.431-0.478c0.192-0.189,0.409-0.438,0.653-0.709
			c0.251-0.263,0.527-0.554,0.8-0.881c0.295-0.306,0.558-0.668,0.846-1.014c0.124-0.188,0.26-0.365,0.393-0.549
			c0.11-0.196,0.23-0.38,0.347-0.568c0.079-0.202,0.2-0.384,0.276-0.58c0.063-0.199,0.16-0.385,0.201-0.581
			c0.12-0.385,0.168-0.775,0.174-1.18c0.033-0.403-0.049-0.831-0.121-1.271c-0.084-0.44-0.234-0.891-0.383-1.341
			c-0.33-0.896-0.74-1.777-1.128-2.546c-0.405-0.799-0.743-1.465-0.98-1.931C185.329,114.271,185.186,113.972,185.186,113.972z"/>
	</g>
	<g>
		<path fill="#59A13B" d="M145.483,110.024c0.036,0.043-29.702,20.296-32.814,21.213c-15.77,4.648-25.943-18.791-7.007-22.585
			c-11.78,2.36-17.538-27.721,3.552-21.113C122.173,91.6,134.932,101.635,145.483,110.024z"/>
		<path fill="#56921E" d="M109.961,117.785c1.301-0.647,2.629-1.233,3.964-1.803c1.334-0.573,2.686-1.099,4.039-1.627
			c1.357-0.516,2.729-0.992,4.1-1.476c0.687-0.236,1.381-0.455,2.073-0.677c0.691-0.227,1.392-0.423,2.088-0.637
			c0.697-0.213,1.395-0.419,2.1-0.608c0.705-0.189,1.407-0.382,2.117-0.557l2.136-0.503c0.712-0.167,1.438-0.291,2.156-0.439
			l1.082-0.209l1.095-0.164c0.733-0.1,1.454-0.242,2.199-0.299c0.743-0.066,1.479-0.149,2.228-0.192l2.263-0.059l0.062,2.845
			c-0.768,0.038-1.484,0.054-2.222,0.062c-0.732,0.005-1.464,0.007-2.195-0.011c-0.731-0.017-1.461-0.046-2.19-0.084
			c-0.73-0.038-1.46-0.079-2.188-0.147c-0.728-0.059-1.456-0.135-2.183-0.216c-0.727-0.079-1.452-0.183-2.176-0.291
			c-0.723-0.117-1.447-0.226-2.166-0.372c-0.72-0.136-1.436-0.304-2.151-0.464c-0.713-0.179-1.426-0.351-2.132-0.558
			c-0.708-0.191-1.41-0.421-2.104-0.662c-0.693-0.251-1.382-0.509-2.06-0.801c-0.342-0.135-0.677-0.292-1.011-0.448
			c-0.334-0.158-0.672-0.3-0.994-0.484c-0.325-0.178-0.651-0.347-0.971-0.531l-0.945-0.577c-0.613-0.412-1.23-0.813-1.789-1.298
			c-0.288-0.228-0.568-0.466-0.83-0.726c-0.262-0.257-0.543-0.49-0.779-0.774c-0.238-0.279-0.491-0.541-0.711-0.831l-0.637-0.881
			l0.798,0.728c0.266,0.239,0.562,0.445,0.839,0.666c0.27,0.23,0.579,0.412,0.869,0.614c0.287,0.205,0.591,0.387,0.901,0.557
			c0.605,0.361,1.239,0.674,1.869,0.98l0.966,0.422c0.325,0.132,0.658,0.25,0.985,0.375c0.658,0.243,1.321,0.476,1.995,0.673
			c0.671,0.207,1.352,0.382,2.034,0.549c0.688,0.15,1.367,0.324,2.06,0.454c0.687,0.146,1.384,0.258,2.077,0.376
			c1.394,0.211,2.794,0.379,4.197,0.524c1.405,0.133,2.814,0.238,4.226,0.303c1.412,0.066,2.825,0.112,4.238,0.113
			c0.706,0.005,1.413,0.002,2.117-0.009c0.699-0.012,1.42-0.035,2.087-0.073l0.062,2.845l-2.068,0.039
			c-0.693,0.032-1.393,0.112-2.09,0.16c-0.697,0.035-1.399,0.157-2.099,0.235l-1.051,0.132l-1.052,0.166
			c-0.701,0.116-1.405,0.208-2.104,0.344l-2.104,0.387l-2.102,0.427c-0.704,0.132-1.404,0.282-2.104,0.438
			c-0.699,0.157-1.403,0.297-2.1,0.468c-0.699,0.166-1.397,0.335-2.1,0.486l-2.1,0.499l-2.098,0.518
			c-1.405,0.329-2.8,0.695-4.204,1.042L109.961,117.785z"/>
		<path fill="#9DC985" d="M103.616,104.461c0,0-0.082-0.016-0.228-0.06c-0.142-0.048-0.364-0.106-0.619-0.22
			c-0.524-0.21-1.243-0.569-2.019-1.146c-0.778-0.572-1.611-1.37-2.319-2.444c-0.172-0.274-0.345-0.553-0.488-0.865l-0.219-0.469
			l-0.179-0.503c-0.22-0.686-0.37-1.437-0.35-2.223c0.028-0.776,0.163-1.578,0.483-2.276c0.279-0.719,0.725-1.313,1.167-1.833
			c0.243-0.235,0.471-0.474,0.714-0.679c0.254-0.187,0.494-0.373,0.738-0.538c0.502-0.295,0.975-0.56,1.437-0.725
			c0.232-0.084,0.445-0.175,0.657-0.239c0.216-0.055,0.415-0.112,0.607-0.154c0.192-0.041,0.367-0.087,0.535-0.114
			c0.169-0.02,0.325-0.038,0.465-0.054c0.277-0.037,0.504-0.037,0.652-0.049c0.152-0.002,0.233-0.004,0.233-0.004
			s-0.052,0.063-0.151,0.182c-0.102,0.11-0.241,0.289-0.431,0.478c-0.191,0.189-0.409,0.438-0.653,0.709
			c-0.251,0.263-0.527,0.554-0.801,0.881c-0.295,0.306-0.557,0.668-0.846,1.014c-0.124,0.188-0.26,0.366-0.393,0.55
			c-0.11,0.196-0.23,0.379-0.347,0.567c-0.079,0.202-0.2,0.384-0.276,0.58c-0.063,0.199-0.16,0.385-0.201,0.581
			c-0.12,0.385-0.169,0.775-0.175,1.18c-0.032,0.403,0.049,0.831,0.121,1.271c0.085,0.44,0.234,0.891,0.383,1.341
			c0.33,0.896,0.741,1.776,1.128,2.546c0.405,0.799,0.743,1.465,0.98,1.931C103.474,104.162,103.616,104.461,103.616,104.461z"/>
	</g>
	<path fill="#56921E" d="M56.226,148.884c0,0-30.34-23.529-16.718-40.866c13.622-17.337,20.433,9.288,20.433,9.288
		s1.858-15.48,14.242-9.907C86.565,112.972,56.226,148.884,56.226,148.884z"/>
	<path fill="#59A13B" d="M45.495,122.064c0.762,0.958,1.464,1.957,2.155,2.965c0.349,0.502,0.68,1.015,1.009,1.529
		c0.327,0.516,0.665,1.026,0.983,1.548c0.632,1.045,1.242,2.105,1.849,3.169c0.301,0.533,0.573,1.082,0.862,1.622
		c0.29,0.54,0.558,1.092,0.831,1.642c0.269,0.552,0.555,1.096,0.8,1.662l0.751,1.689l0.686,1.724
		c0.237,0.571,0.426,1.166,0.633,1.754c0.201,0.589,0.401,1.179,0.559,1.79c0.158,0.611,0.363,1.201,0.478,1.831
		c0.12,0.628,0.255,1.249,0.361,1.883c0.071,0.649,0.137,1.301,0.194,1.952l-2.806,0.365c-0.132-0.664-0.204-1.223-0.273-1.83
		c-0.069-0.595-0.113-1.189-0.136-1.784c-0.05-1.189-0.044-2.377,0.048-3.562c0.083-1.184,0.24-2.363,0.472-3.528
		c0.108-0.583,0.246-1.162,0.401-1.735c0.156-0.573,0.329-1.14,0.521-1.702c0.197-0.559,0.393-1.118,0.629-1.663
		c0.217-0.551,0.48-1.083,0.748-1.61c0.282-0.52,0.555-1.044,0.873-1.541c0.305-0.504,0.626-0.997,0.979-1.468
		c0.345-0.475,0.722-0.927,1.096-1.374c0.392-0.435,0.769-0.878,1.201-1.271c0.41-0.411,0.849-0.791,1.292-1.162
		c0.442-0.371,0.918-0.701,1.381-1.038c-0.356,0.456-0.747,0.868-1.082,1.329c-0.347,0.45-0.696,0.893-1.004,1.366
		c-0.326,0.458-0.617,0.939-0.917,1.408c-0.282,0.483-0.563,0.963-0.81,1.46l-0.376,0.741l-0.345,0.754
		c-0.234,0.499-0.422,1.019-0.619,1.531c-0.179,0.521-0.359,1.038-0.518,1.563c-0.169,0.52-0.301,1.053-0.433,1.583
		c-0.127,0.532-0.237,1.067-0.33,1.606c-0.086,0.54-0.181,1.077-0.244,1.62c-0.075,0.54-0.121,1.085-0.162,1.629
		c-0.044,0.544-0.071,1.089-0.086,1.634c-0.022,1.091-0.006,2.183,0.072,3.269c0.039,0.542,0.092,1.083,0.155,1.619
		c0.063,0.524,0.148,1.094,0.243,1.546l-2.807,0.364c-0.063-0.555-0.116-1.111-0.165-1.668c-0.089-0.562-0.207-1.127-0.308-1.691
		c-0.101-0.564-0.271-1.131-0.402-1.697c-0.128-0.568-0.302-1.132-0.477-1.695c-0.171-0.565-0.32-1.135-0.522-1.695l-0.568-1.69
		c-0.416-1.118-0.811-2.245-1.248-3.363c-0.415-1.125-0.893-2.228-1.34-3.347c-0.456-1.116-0.917-2.232-1.403-3.338
		c-0.227-0.561-0.472-1.114-0.708-1.673l-0.723-1.669L45.495,122.064z"/>
	<path fill="#9DC985" d="M38.683,117.11c0,0-0.011-0.089-0.016-0.255c0.001-0.163-0.016-0.411,0.012-0.713
		c0.031-0.612,0.139-1.48,0.427-2.485c0.287-1.005,0.742-2.156,1.478-3.297c0.357-0.574,0.802-1.138,1.311-1.674
		c0.513-0.537,1.115-1.025,1.783-1.453c0.69-0.392,1.424-0.76,2.226-0.924c0.784-0.204,1.601-0.235,2.353-0.152
		c0.374,0.06,0.745,0.089,1.082,0.21c0.342,0.102,0.674,0.193,0.967,0.344c0.611,0.252,1.113,0.595,1.56,0.908
		c0.422,0.35,0.804,0.658,1.085,0.993c0.292,0.319,0.53,0.606,0.7,0.867c0.18,0.248,0.299,0.465,0.387,0.601
		c0.082,0.143,0.125,0.219,0.125,0.219s-0.086-0.023-0.248-0.066c-0.155-0.05-0.393-0.106-0.668-0.207
		c-0.272-0.105-0.627-0.182-1.002-0.298c-0.371-0.129-0.803-0.208-1.242-0.326c-0.449-0.081-0.916-0.188-1.395-0.215
		c-0.239-0.034-0.478-0.035-0.717-0.034c-0.241-0.014-0.476,0.018-0.713,0.034c-0.236,0.018-0.466,0.08-0.698,0.108l-0.341,0.1
		c-0.115,0.021-0.229,0.058-0.34,0.105c-0.452,0.146-0.894,0.384-1.332,0.643c-0.441,0.266-0.867,0.593-1.29,0.94
		c-0.411,0.364-0.826,0.734-1.211,1.136c-0.391,0.393-0.76,0.801-1.115,1.197c-0.35,0.4-0.69,0.784-0.997,1.153
		c-0.64,0.754-1.173,1.382-1.546,1.822C38.924,116.845,38.683,117.11,38.683,117.11z"/>
	<g>
		<path fill="#56921E" d="M55.156,147.663c0,0,28.76-25.436,43.262-8.828c14.502,16.608-12.925,18.35-12.925,18.35
			s14.864,4.703,7.086,15.835C84.801,184.151,55.156,147.663,55.156,147.663z"/>
		<path fill="#59A13B" d="M86.852,142.915c-1.098,0.541-2.223,1.016-3.354,1.478c-0.564,0.234-1.136,0.449-1.708,0.662
			c-0.573,0.211-1.144,0.433-1.721,0.633c-1.155,0.397-2.32,0.768-3.489,1.135c-0.585,0.182-1.179,0.331-1.768,0.498
			c-0.589,0.169-1.185,0.314-1.781,0.464c-0.597,0.146-1.189,0.311-1.794,0.43l-1.81,0.376l-1.831,0.306
			c-0.608,0.111-1.23,0.17-1.848,0.248c-0.618,0.072-1.237,0.142-1.868,0.167c-0.63,0.025-1.25,0.1-1.89,0.08
			c-0.639-0.016-1.275-0.016-1.917-0.047c-0.65-0.069-1.3-0.142-1.948-0.224l0.238-2.82c0.677,0.012,1.239,0.06,1.847,0.12
			c0.596,0.059,1.186,0.141,1.773,0.245c1.172,0.203,2.332,0.461,3.47,0.801c1.14,0.333,2.259,0.735,3.348,1.209
			c0.547,0.229,1.084,0.487,1.61,0.759c0.528,0.274,1.045,0.563,1.553,0.87c0.505,0.311,1.01,0.622,1.492,0.967
			c0.492,0.329,0.957,0.698,1.415,1.072c0.449,0.386,0.902,0.763,1.321,1.18c0.428,0.405,0.842,0.823,1.227,1.268
			c0.391,0.438,0.753,0.902,1.111,1.362c0.342,0.475,0.695,0.937,0.987,1.443c0.315,0.488,0.593,0.998,0.862,1.508
			c0.269,0.51,0.491,1.046,0.721,1.569c-0.37-0.444-0.69-0.913-1.07-1.339c-0.366-0.435-0.726-0.869-1.122-1.271
			c-0.379-0.416-0.787-0.802-1.183-1.195c-0.412-0.378-0.822-0.754-1.255-1.101l-0.645-0.524l-0.663-0.497
			c-0.438-0.335-0.907-0.629-1.365-0.929c-0.47-0.286-0.938-0.571-1.417-0.838c-0.472-0.276-0.965-0.517-1.455-0.759
			c-0.493-0.237-0.993-0.458-1.5-0.662c-0.509-0.198-1.014-0.405-1.531-0.582c-0.512-0.187-1.035-0.347-1.558-0.503
			c-0.522-0.159-1.049-0.3-1.579-0.43c-1.061-0.253-2.132-0.469-3.209-0.622c-0.539-0.076-1.078-0.14-1.616-0.192
			c-0.525-0.049-1.101-0.087-1.563-0.09l0.238-2.82c0.556,0.056,1.11,0.122,1.665,0.192c0.568,0.032,1.146,0.036,1.718,0.057
			c0.573,0.021,1.163-0.025,1.744-0.033c0.582-0.004,1.17-0.055,1.758-0.107c0.588-0.047,1.176-0.072,1.766-0.151l1.772-0.197
			c1.181-0.17,2.366-0.317,3.551-0.507c1.188-0.168,2.368-0.401,3.555-0.6c1.186-0.209,2.375-0.424,3.559-0.664
			c0.597-0.103,1.189-0.225,1.785-0.338l1.785-0.353L86.852,142.915z"/>
		<path fill="#9DC985" d="M89.826,136.71c0,0,0.09-0.004,0.255,0.006c0.162,0.015,0.411,0.019,0.71,0.073
			c0.607,0.084,1.462,0.265,2.439,0.639c0.977,0.372,2.085,0.924,3.158,1.756c0.542,0.405,1.066,0.897,1.555,1.45
			c0.491,0.557,0.926,1.199,1.294,1.901c0.331,0.722,0.635,1.484,0.729,2.298c0.136,0.799,0.096,1.615-0.051,2.357
			c-0.092,0.368-0.152,0.735-0.302,1.06c-0.13,0.332-0.25,0.654-0.425,0.934c-0.304,0.587-0.688,1.058-1.039,1.475
			c-0.385,0.391-0.725,0.744-1.082,0.995c-0.343,0.264-0.649,0.476-0.924,0.623c-0.262,0.158-0.488,0.258-0.632,0.334
			c-0.15,0.069-0.23,0.105-0.23,0.105s0.03-0.084,0.087-0.241c0.063-0.15,0.14-0.383,0.263-0.647
			c0.128-0.262,0.235-0.61,0.383-0.973c0.16-0.358,0.277-0.782,0.432-1.209c0.119-0.44,0.266-0.896,0.334-1.372
			c0.055-0.234,0.076-0.472,0.095-0.711c0.034-0.238,0.023-0.475,0.028-0.712c0.003-0.237-0.039-0.471-0.048-0.705l-0.071-0.349
			c-0.011-0.116-0.038-0.233-0.075-0.348c-0.106-0.462-0.306-0.923-0.526-1.382c-0.227-0.463-0.516-0.915-0.825-1.366
			c-0.327-0.441-0.661-0.886-1.028-1.304c-0.358-0.422-0.733-0.826-1.096-1.214c-0.368-0.382-0.722-0.755-1.063-1.092
			c-0.696-0.702-1.276-1.287-1.682-1.697C90.07,136.973,89.826,136.71,89.826,136.71z"/>
	</g>
	<g>
		<path fill="#56921E" d="M57.535,147.316c0,0-32.111-21.047-44.081-2.531c-11.969,18.517,15.424,16.306,15.424,16.306
			s-14.036,6.788-4.741,16.688C33.431,187.679,57.535,147.316,57.535,147.316z"/>
		<path fill="#59A13B" d="M25.486,147.164l3.649,0.183l1.816,0.094c0.606,0.026,1.209,0.062,1.815,0.078
			c1.206,0.068,2.413,0.11,3.618,0.146c1.204,0.027,2.405,0.089,3.604,0.085c1.2,0.018,2.394-0.007,3.587-0.008l1.782-0.059
			c0.595-0.006,1.181-0.066,1.77-0.104c0.589-0.034,1.178-0.067,1.755-0.147c0.576-0.075,1.167-0.115,1.731-0.217
			c0.564-0.103,1.135-0.19,1.692-0.303c0.539-0.149,1.078-0.293,1.62-0.429l0.64,2.756c-0.457,0.069-1.021,0.189-1.533,0.314
			c-0.524,0.128-1.049,0.268-1.571,0.421c-1.045,0.306-2.073,0.673-3.087,1.076c-0.505,0.205-1.007,0.421-1.501,0.653
			c-0.495,0.229-0.989,0.462-1.47,0.721c-0.487,0.249-0.956,0.526-1.432,0.795c-0.472,0.276-0.936,0.565-1.39,0.871
			c-0.45,0.309-0.904,0.619-1.332,0.96c-0.436,0.332-0.857,0.681-1.282,1.032c-0.411,0.364-0.832,0.722-1.218,1.116l-0.585,0.587
			l-0.563,0.611c-0.379,0.406-0.731,0.837-1.084,1.27c-0.334,0.445-0.684,0.886-0.999,1.352c-0.335,0.455-0.628,0.936-0.928,1.419
			c-0.315,0.476-0.564,0.986-0.867,1.479c0.153-0.551,0.296-1.113,0.488-1.657c0.193-0.544,0.395-1.088,0.637-1.616
			c0.217-0.543,0.5-1.051,0.77-1.57c0.288-0.507,0.58-1.018,0.904-1.508c0.318-0.495,0.668-0.968,1.033-1.431
			c0.355-0.472,0.75-0.91,1.138-1.357c0.4-0.436,0.807-0.868,1.246-1.265c0.428-0.411,0.883-0.791,1.338-1.171
			c0.458-0.376,0.929-0.737,1.412-1.083c0.483-0.345,0.976-0.677,1.485-0.983c1.009-0.625,2.059-1.184,3.14-1.677
			c1.077-0.5,2.189-0.921,3.32-1.29c0.565-0.187,1.137-0.353,1.719-0.497c0.593-0.147,1.142-0.275,1.81-0.384l0.64,2.756
			c-0.63,0.175-1.263,0.34-1.896,0.501c-0.631,0.123-1.26,0.214-1.891,0.321c-0.63,0.112-1.255,0.126-1.882,0.192
			c-0.628,0.066-1.251,0.085-1.873,0.103c-0.622,0.011-1.247,0.042-1.864,0.02l-1.855-0.04l-1.845-0.112
			c-0.616-0.031-1.225-0.11-1.837-0.169c-0.611-0.063-1.222-0.121-1.829-0.203c-0.608-0.081-1.217-0.144-1.822-0.24
			c-1.209-0.196-2.415-0.396-3.616-0.623c-0.6-0.115-1.196-0.253-1.794-0.38c-0.597-0.129-1.193-0.26-1.785-0.41
			C27.832,147.85,26.65,147.542,25.486,147.164z"/>
		<path fill="#9DC985" d="M21.652,141.449c0,0-0.204,0.295-0.557,0.773c-0.343,0.464-0.833,1.126-1.421,1.921
			c-0.289,0.382-0.586,0.802-0.895,1.233c-0.304,0.436-0.617,0.889-0.91,1.359c-0.304,0.466-0.57,0.955-0.83,1.438
			c-0.241,0.491-0.463,0.98-0.621,1.47c-0.152,0.486-0.284,0.971-0.323,1.444c-0.021,0.119-0.03,0.238-0.025,0.355l-0.02,0.355
			c0.025,0.233,0.017,0.47,0.054,0.705c0.039,0.234,0.062,0.47,0.13,0.701c0.053,0.234,0.109,0.466,0.197,0.691
			c0.136,0.46,0.346,0.891,0.527,1.309c0.215,0.401,0.391,0.803,0.6,1.135c0.199,0.338,0.354,0.667,0.519,0.907
			c0.16,0.244,0.269,0.463,0.353,0.603c0.079,0.148,0.121,0.226,0.121,0.226s-0.084-0.025-0.242-0.072
			c-0.153-0.055-0.391-0.121-0.673-0.24c-0.293-0.105-0.626-0.272-1.003-0.484c-0.39-0.197-0.777-0.498-1.214-0.83
			c-0.407-0.363-0.855-0.774-1.24-1.311c-0.213-0.252-0.378-0.554-0.555-0.863c-0.194-0.3-0.307-0.655-0.451-1.006
			c-0.252-0.713-0.408-1.515-0.389-2.326c-0.023-0.818,0.168-1.617,0.392-2.378c0.264-0.747,0.602-1.446,1.008-2.067
			c0.405-0.617,0.853-1.179,1.33-1.658c0.943-0.977,1.96-1.682,2.874-2.191c0.913-0.511,1.733-0.813,2.322-0.983
			c0.287-0.095,0.533-0.136,0.691-0.174C21.563,141.459,21.652,141.449,21.652,141.449z"/>
	</g>
	<g>
		<path fill="#59A13B" d="M59.269,53.077c-17.525,8.807-37.582,10.564-48.763,29.056c1.591,1.381,2.942,2.607,4.873,3.2
			C24.151,69.487,43.873,60.813,59.269,53.077z"/>
		<g>
			<path fill="#56921E" d="M71.036,52.051c0,0-30.34-23.529-16.718-40.866C67.939-6.152,74.75,20.473,74.75,20.473
				s1.858-15.48,14.242-9.907C101.375,16.139,71.036,52.051,71.036,52.051z"/>
			<path fill="#59A13B" d="M60.305,25.231c0.762,0.958,1.464,1.957,2.155,2.964c0.348,0.503,0.68,1.015,1.009,1.529
				c0.327,0.515,0.665,1.026,0.983,1.548c0.633,1.045,1.242,2.105,1.849,3.17c0.302,0.533,0.573,1.082,0.862,1.623
				c0.29,0.54,0.558,1.092,0.831,1.643c0.268,0.552,0.555,1.096,0.8,1.661l0.751,1.689l0.687,1.724
				c0.237,0.571,0.426,1.167,0.633,1.754c0.201,0.589,0.401,1.179,0.559,1.79c0.158,0.611,0.363,1.201,0.478,1.831
				c0.12,0.628,0.255,1.249,0.361,1.883c0.071,0.65,0.137,1.301,0.194,1.952l-2.806,0.365c-0.132-0.664-0.204-1.223-0.273-1.83
				c-0.068-0.595-0.113-1.189-0.136-1.784c-0.05-1.189-0.044-2.377,0.048-3.561c0.084-1.185,0.24-2.364,0.472-3.528
				c0.108-0.583,0.246-1.162,0.4-1.735c0.156-0.573,0.33-1.14,0.521-1.702c0.197-0.559,0.393-1.119,0.629-1.663
				c0.218-0.551,0.48-1.083,0.749-1.61c0.282-0.521,0.555-1.044,0.873-1.541c0.305-0.504,0.626-0.997,0.979-1.468
				c0.345-0.475,0.722-0.927,1.096-1.374c0.391-0.435,0.769-0.878,1.201-1.27c0.411-0.412,0.85-0.792,1.292-1.163
				c0.442-0.371,0.918-0.701,1.381-1.037c-0.356,0.456-0.747,0.868-1.082,1.33c-0.347,0.45-0.696,0.893-1.005,1.366
				c-0.326,0.458-0.617,0.939-0.917,1.408c-0.282,0.483-0.563,0.963-0.81,1.46l-0.375,0.741l-0.345,0.754
				c-0.234,0.499-0.422,1.019-0.62,1.531c-0.18,0.52-0.359,1.037-0.518,1.562c-0.17,0.52-0.301,1.053-0.433,1.583
				c-0.128,0.532-0.237,1.068-0.33,1.606c-0.086,0.54-0.181,1.077-0.244,1.62c-0.074,0.541-0.121,1.085-0.162,1.629
				c-0.045,0.544-0.071,1.089-0.086,1.634c-0.023,1.091-0.007,2.183,0.072,3.269c0.039,0.542,0.092,1.083,0.155,1.619
				c0.063,0.524,0.148,1.094,0.243,1.546l-2.806,0.364c-0.063-0.555-0.116-1.111-0.165-1.668c-0.09-0.562-0.208-1.127-0.308-1.691
				c-0.101-0.564-0.271-1.131-0.402-1.697c-0.127-0.568-0.302-1.132-0.476-1.695c-0.17-0.565-0.32-1.135-0.522-1.695l-0.568-1.69
				c-0.417-1.118-0.811-2.245-1.248-3.363c-0.416-1.125-0.893-2.229-1.34-3.347c-0.456-1.116-0.917-2.232-1.403-3.338
				c-0.227-0.562-0.472-1.114-0.708-1.672l-0.723-1.67L60.305,25.231z"/>
			<path fill="#9DC985" d="M53.493,20.278c0,0-0.011-0.089-0.016-0.255c0.001-0.163-0.016-0.411,0.012-0.713
				c0.031-0.612,0.139-1.48,0.427-2.485c0.287-1.005,0.742-2.156,1.478-3.297c0.357-0.575,0.802-1.138,1.311-1.674
				c0.512-0.537,1.115-1.026,1.783-1.453c0.69-0.392,1.424-0.76,2.226-0.925c0.784-0.204,1.601-0.234,2.353-0.152
				c0.374,0.06,0.745,0.089,1.082,0.21c0.342,0.102,0.673,0.193,0.967,0.344c0.611,0.253,1.113,0.595,1.56,0.909
				c0.422,0.35,0.804,0.658,1.084,0.992c0.293,0.319,0.53,0.606,0.7,0.867c0.18,0.248,0.299,0.464,0.387,0.601
				c0.082,0.143,0.125,0.22,0.125,0.22s-0.086-0.023-0.248-0.066c-0.155-0.05-0.394-0.106-0.668-0.207
				c-0.272-0.105-0.628-0.182-1.002-0.297c-0.371-0.129-0.803-0.209-1.242-0.326c-0.448-0.081-0.916-0.187-1.395-0.215
				c-0.238-0.034-0.477-0.035-0.717-0.034c-0.241-0.014-0.476,0.018-0.712,0.034c-0.237,0.018-0.466,0.08-0.698,0.108l-0.341,0.101
				c-0.115,0.021-0.229,0.057-0.34,0.105c-0.452,0.146-0.894,0.384-1.332,0.643c-0.442,0.266-0.867,0.593-1.29,0.94
				c-0.411,0.364-0.826,0.734-1.211,1.136c-0.391,0.393-0.76,0.802-1.115,1.197c-0.35,0.4-0.691,0.784-0.997,1.153
				c-0.64,0.754-1.174,1.382-1.547,1.822C53.734,20.012,53.493,20.278,53.493,20.278z"/>
		</g>
		<g>
			<path fill="#56921E" d="M71.727,52.598c0,0,30.34,23.529,16.719,40.866c-13.623,17.337-20.434-9.288-20.434-9.288
				s-1.858,15.48-14.241,9.907C41.388,88.511,71.727,52.598,71.727,52.598z"/>
			<path fill="#59A13B" d="M82.458,79.419c-0.762-0.958-1.464-1.957-2.155-2.965c-0.348-0.502-0.68-1.015-1.009-1.529
				c-0.327-0.515-0.665-1.026-0.983-1.548c-0.633-1.045-1.242-2.105-1.848-3.169c-0.302-0.534-0.573-1.082-0.862-1.623
				c-0.29-0.54-0.558-1.092-0.831-1.642c-0.269-0.552-0.555-1.096-0.8-1.662l-0.751-1.689l-0.687-1.724
				c-0.237-0.571-0.426-1.167-0.633-1.754c-0.201-0.589-0.401-1.179-0.559-1.79c-0.158-0.611-0.363-1.201-0.478-1.831
				c-0.121-0.628-0.255-1.249-0.361-1.883c-0.071-0.65-0.137-1.301-0.194-1.952l2.807-0.365c0.132,0.664,0.204,1.223,0.273,1.83
				c0.068,0.595,0.113,1.19,0.136,1.784c0.05,1.188,0.044,2.377-0.048,3.561c-0.084,1.184-0.24,2.363-0.472,3.528
				c-0.108,0.584-0.246,1.162-0.401,1.735c-0.155,0.573-0.329,1.14-0.521,1.702c-0.197,0.56-0.393,1.119-0.629,1.663
				c-0.218,0.551-0.48,1.083-0.749,1.61c-0.282,0.52-0.555,1.044-0.873,1.541c-0.306,0.504-0.626,0.997-0.979,1.468
				c-0.345,0.475-0.722,0.926-1.096,1.374c-0.392,0.435-0.769,0.878-1.201,1.27c-0.41,0.412-0.849,0.792-1.291,1.163
				c-0.442,0.371-0.918,0.701-1.381,1.037c0.355-0.456,0.746-0.868,1.082-1.329c0.347-0.45,0.696-0.893,1.004-1.366
				c0.326-0.458,0.617-0.939,0.917-1.408c0.282-0.482,0.563-0.963,0.81-1.46l0.375-0.741l0.345-0.754
				c0.234-0.499,0.422-1.019,0.62-1.531c0.179-0.521,0.359-1.038,0.518-1.562c0.17-0.52,0.301-1.054,0.433-1.583
				c0.127-0.532,0.237-1.068,0.33-1.606c0.086-0.54,0.181-1.077,0.244-1.62c0.074-0.54,0.12-1.085,0.162-1.629
				c0.045-0.544,0.071-1.089,0.086-1.634c0.023-1.091,0.007-2.183-0.072-3.268c-0.039-0.542-0.092-1.083-0.155-1.62
				c-0.063-0.524-0.148-1.094-0.243-1.546l2.806-0.365c0.063,0.555,0.116,1.111,0.165,1.668c0.09,0.561,0.208,1.127,0.308,1.691
				c0.101,0.564,0.271,1.131,0.402,1.697c0.127,0.568,0.302,1.132,0.476,1.695c0.17,0.565,0.32,1.135,0.522,1.695l0.568,1.69
				c0.416,1.118,0.811,2.245,1.248,3.363c0.416,1.125,0.893,2.229,1.34,3.347c0.456,1.116,0.917,2.232,1.403,3.338
				c0.227,0.562,0.472,1.115,0.708,1.672l0.723,1.67L82.458,79.419z"/>
			<path fill="#9DC985" d="M89.27,84.372c0,0,0.011,0.089,0.016,0.255c-0.001,0.163,0.016,0.411-0.012,0.713
				c-0.031,0.612-0.139,1.48-0.427,2.485c-0.287,1.005-0.742,2.156-1.478,3.297c-0.357,0.575-0.802,1.138-1.311,1.674
				c-0.513,0.536-1.115,1.025-1.783,1.453c-0.69,0.392-1.424,0.76-2.226,0.924c-0.784,0.204-1.601,0.235-2.353,0.152
				c-0.374-0.06-0.745-0.089-1.082-0.21c-0.342-0.102-0.673-0.193-0.967-0.344c-0.611-0.252-1.113-0.595-1.559-0.909
				c-0.423-0.35-0.804-0.658-1.085-0.992c-0.293-0.319-0.53-0.606-0.7-0.867c-0.181-0.248-0.299-0.465-0.387-0.601
				c-0.082-0.143-0.125-0.22-0.125-0.22s0.086,0.023,0.248,0.066c0.155,0.05,0.393,0.106,0.668,0.207
				c0.272,0.105,0.628,0.182,1.002,0.297c0.371,0.129,0.803,0.209,1.242,0.326c0.448,0.081,0.916,0.188,1.395,0.215
				c0.238,0.034,0.477,0.035,0.717,0.034c0.241,0.014,0.476-0.018,0.712-0.034c0.236-0.018,0.466-0.079,0.698-0.108l0.341-0.101
				c0.116-0.021,0.229-0.057,0.34-0.105c0.452-0.146,0.894-0.384,1.332-0.643c0.442-0.266,0.867-0.594,1.29-0.94
				c0.411-0.363,0.826-0.734,1.211-1.136c0.39-0.393,0.76-0.801,1.115-1.197c0.35-0.4,0.691-0.784,0.997-1.153
				c0.64-0.754,1.173-1.382,1.547-1.822C89.029,84.638,89.27,84.372,89.27,84.372z"/>
		</g>
		<g>
			<path fill="#56921E" d="M71.145,51.516c0,0,26.088-28.17,42.17-13.087c16.082,15.083-11.036,19.544-11.036,19.544
				s15.259,3.202,8.626,15.052C104.272,84.874,71.145,51.516,71.145,51.516z"/>
			<path fill="#59A13B" d="M102.212,43.639c-1.039,0.648-2.111,1.232-3.19,1.804c-0.539,0.289-1.085,0.56-1.633,0.829
				c-0.55,0.267-1.095,0.544-1.65,0.801c-1.11,0.509-2.232,0.995-3.359,1.477c-0.564,0.239-1.14,0.447-1.71,0.672
				c-0.569,0.227-1.148,0.431-1.726,0.639c-0.579,0.204-1.152,0.428-1.742,0.606l-1.763,0.554l-1.791,0.486
				c-0.594,0.17-1.207,0.291-1.814,0.43c-0.608,0.133-1.217,0.265-1.842,0.352c-0.625,0.087-1.235,0.224-1.873,0.267
				c-0.637,0.048-1.27,0.111-1.912,0.144c-0.653-0.004-1.308-0.012-1.961-0.029l-0.044-2.83c0.675-0.055,1.239-0.063,1.849-0.063
				c0.599,0,1.195,0.023,1.788,0.068c1.187,0.085,2.367,0.227,3.533,0.452c1.167,0.218,2.321,0.507,3.451,0.869
				c0.567,0.174,1.126,0.377,1.678,0.595c0.552,0.22,1.096,0.457,1.632,0.711c0.534,0.259,1.067,0.518,1.581,0.814
				c0.522,0.279,1.022,0.6,1.515,0.927c0.485,0.34,0.974,0.67,1.432,1.042c0.466,0.361,0.92,0.735,1.348,1.139
				c0.432,0.397,0.838,0.822,1.24,1.245c0.388,0.439,0.785,0.863,1.126,1.338c0.363,0.454,0.69,0.934,1.009,1.415
				c0.318,0.481,0.592,0.992,0.874,1.49c-0.412-0.405-0.777-0.84-1.198-1.226c-0.408-0.396-0.809-0.792-1.243-1.153
				c-0.418-0.376-0.863-0.72-1.295-1.071c-0.447-0.335-0.893-0.669-1.359-0.971l-0.694-0.457l-0.709-0.429
				c-0.469-0.289-0.965-0.535-1.451-0.789c-0.497-0.237-0.99-0.474-1.493-0.692c-0.497-0.227-1.012-0.418-1.524-0.61
				c-0.514-0.187-1.034-0.357-1.558-0.51c-0.526-0.146-1.049-0.302-1.581-0.426c-0.529-0.135-1.065-0.243-1.6-0.346
				c-0.535-0.106-1.074-0.194-1.614-0.271c-1.081-0.147-2.168-0.255-3.256-0.3c-0.543-0.022-1.087-0.032-1.627-0.03
				c-0.528,0.003-1.104,0.023-1.564,0.066l-0.043-2.829c0.559,0,1.117,0.011,1.676,0.025c0.568-0.025,1.143-0.078,1.715-0.114
				c0.572-0.036,1.155-0.141,1.732-0.207c0.579-0.062,1.158-0.171,1.738-0.281c0.581-0.106,1.164-0.189,1.743-0.327l1.744-0.372
				c1.158-0.287,2.323-0.551,3.483-0.858c1.165-0.285,2.316-0.634,3.478-0.951c1.16-0.326,2.321-0.658,3.476-1.015
				c0.583-0.162,1.161-0.342,1.742-0.514l1.741-0.529L102.212,43.639z"/>
			<path fill="#9DC985" d="M104.554,37.169c0,0,0.089-0.013,0.255-0.019c0.163-0.001,0.411-0.021,0.713,0.002
				c0.613,0.023,1.482,0.119,2.491,0.394c1.009,0.273,2.166,0.713,3.316,1.433c0.58,0.349,1.149,0.787,1.691,1.288
				c0.544,0.506,1.041,1.102,1.477,1.763c0.401,0.685,0.779,1.413,0.954,2.213c0.214,0.782,0.256,1.598,0.184,2.351
				c-0.055,0.375-0.079,0.746-0.195,1.085c-0.097,0.343-0.184,0.676-0.33,0.972c-0.244,0.614-0.58,1.121-0.887,1.572
				c-0.344,0.427-0.648,0.812-0.978,1.098c-0.316,0.297-0.599,0.539-0.857,0.711c-0.245,0.183-0.46,0.305-0.596,0.395
				c-0.142,0.084-0.218,0.128-0.218,0.128s0.022-0.087,0.063-0.249c0.048-0.156,0.101-0.395,0.198-0.67
				c0.102-0.273,0.173-0.63,0.284-1.006c0.124-0.372,0.197-0.806,0.309-1.246c0.075-0.449,0.175-0.918,0.196-1.398
				c0.031-0.239,0.029-0.478,0.024-0.717c0.01-0.241-0.024-0.476-0.043-0.712c-0.021-0.236-0.086-0.465-0.118-0.697l-0.105-0.339
				c-0.023-0.115-0.061-0.228-0.11-0.339c-0.152-0.45-0.396-0.889-0.661-1.324c-0.272-0.438-0.605-0.858-0.958-1.277
				c-0.369-0.406-0.746-0.816-1.152-1.196c-0.398-0.385-0.812-0.749-1.212-1.098c-0.404-0.344-0.793-0.68-1.166-0.981
				c-0.762-0.63-1.397-1.154-1.842-1.521C104.823,37.406,104.554,37.169,104.554,37.169z"/>
		</g>
		<g>
			<path fill="#56921E" d="M73.189,52c0,0-28.448-25.784-43.151-9.354c-14.704,16.43,12.701,18.506,12.701,18.506
				S27.818,65.674,35.46,76.9C43.102,88.124,73.189,52,73.189,52z"/>
			<path fill="#59A13B" d="M41.553,46.867l3.576,0.748l1.78,0.374c0.594,0.12,1.185,0.25,1.78,0.36
				c1.182,0.255,2.367,0.484,3.551,0.707c1.185,0.214,2.362,0.462,3.547,0.644c1.183,0.205,2.366,0.366,3.545,0.55l1.769,0.219
				c0.589,0.086,1.177,0.119,1.765,0.173c0.587,0.058,1.174,0.116,1.756,0.127c0.581,0.015,1.171,0.069,1.743,0.055
				c0.573-0.014,1.15-0.011,1.719-0.036c0.555-0.063,1.11-0.122,1.667-0.172l0.204,2.823c-0.462-0.002-1.038,0.028-1.564,0.071
				c-0.538,0.045-1.078,0.102-1.618,0.172c-1.079,0.14-2.152,0.342-3.217,0.583c-0.531,0.124-1.06,0.259-1.584,0.411
				c-0.525,0.149-1.049,0.303-1.564,0.484c-0.519,0.17-1.026,0.372-1.538,0.563c-0.509,0.199-1.012,0.413-1.508,0.644
				c-0.493,0.236-0.989,0.471-1.465,0.741c-0.482,0.261-0.953,0.54-1.427,0.82c-0.462,0.295-0.935,0.584-1.376,0.913l-0.669,0.489
				l-0.651,0.515c-0.438,0.342-0.852,0.713-1.269,1.086c-0.4,0.388-0.813,0.769-1.197,1.18c-0.401,0.397-0.766,0.827-1.137,1.258
				c-0.385,0.421-0.711,0.886-1.086,1.326c0.237-0.52,0.465-1.053,0.74-1.56c0.276-0.507,0.56-1.013,0.881-1.498
				c0.298-0.502,0.657-0.96,1.005-1.431c0.363-0.456,0.731-0.915,1.127-1.349c0.391-0.44,0.81-0.852,1.243-1.252
				c0.424-0.411,0.882-0.783,1.336-1.164c0.462-0.369,0.932-0.732,1.428-1.055c0.486-0.34,0.995-0.644,1.503-0.949
				c0.512-0.3,1.033-0.584,1.564-0.851c0.53-0.266,1.07-0.517,1.62-0.739c1.095-0.461,2.219-0.849,3.362-1.168
				c1.142-0.326,2.305-0.57,3.48-0.758c0.587-0.096,1.179-0.172,1.775-0.224c0.608-0.053,1.171-0.094,1.848-0.098l0.204,2.822
				c-0.649,0.075-1.3,0.139-1.951,0.2c-0.642,0.023-1.278,0.016-1.917,0.023c-0.64,0.013-1.259-0.07-1.889-0.103
				c-0.631-0.032-1.249-0.111-1.866-0.19c-0.617-0.085-1.238-0.152-1.845-0.27l-1.827-0.328l-1.805-0.398
				c-0.603-0.127-1.193-0.299-1.788-0.452c-0.593-0.157-1.188-0.309-1.775-0.486c-0.587-0.174-1.179-0.331-1.762-0.52
				c-1.164-0.381-2.325-0.767-3.475-1.178c-0.575-0.207-1.143-0.436-1.713-0.653c-0.57-0.22-1.138-0.442-1.699-0.683
				C43.764,47.91,42.645,47.421,41.553,46.867z"/>
			<path fill="#9DC985" d="M38.655,40.626c0,0-0.247,0.26-0.671,0.676c-0.411,0.405-0.998,0.983-1.702,1.677
				c-0.345,0.333-0.703,0.701-1.076,1.079c-0.367,0.383-0.748,0.782-1.111,1.201c-0.372,0.413-0.711,0.855-1.043,1.291
				c-0.314,0.448-0.61,0.896-0.843,1.356c-0.226,0.456-0.431,0.915-0.542,1.376c-0.039,0.115-0.067,0.23-0.08,0.347l-0.075,0.348
				c-0.012,0.234-0.056,0.468-0.057,0.705c0.002,0.237-0.012,0.474,0.019,0.713c0.016,0.239,0.035,0.477,0.086,0.713
				c0.063,0.476,0.203,0.934,0.317,1.376c0.15,0.429,0.261,0.854,0.417,1.214c0.143,0.365,0.246,0.714,0.371,0.977
				c0.12,0.266,0.194,0.499,0.255,0.65c0.055,0.158,0.084,0.242,0.084,0.242s-0.079-0.038-0.228-0.109
				c-0.142-0.077-0.367-0.18-0.628-0.342c-0.273-0.15-0.576-0.365-0.916-0.634c-0.354-0.255-0.69-0.613-1.07-1.008
				c-0.346-0.422-0.725-0.898-1.021-1.489c-0.172-0.282-0.287-0.606-0.414-0.939c-0.146-0.326-0.202-0.695-0.29-1.063
				c-0.138-0.744-0.167-1.56-0.022-2.358c0.105-0.812,0.418-1.571,0.757-2.288c0.377-0.697,0.82-1.335,1.317-1.885
				c0.496-0.547,1.026-1.032,1.572-1.431c1.083-0.818,2.198-1.357,3.179-1.717c0.982-0.362,1.838-0.534,2.447-0.61
				c0.299-0.05,0.547-0.052,0.71-0.064C38.565,40.621,38.655,40.626,38.655,40.626z"/>
		</g>
	</g>
</g>
<g>
</g>
<g>
</g>
<g>
</g>
<g>
</g>
<g>
</g>
</svg>
